<?xml version="1.0" standalone="no"?>
<!DOCTYPE svg PUBLIC "-//W3C//DTD SVG 1.1//EN" "http://www.w3.org/Graphics/SVG/1.1/DTD/svg11.dtd" >
<svg xmlns="http://www.w3.org/2000/svg" xmlns:xlink="http://www.w3.org/1999/xlink" version="1.1">
<metadata></metadata>
<defs>
<font id="niksnormal_italic" horiz-adv-x="1208" >
<font-face units-per-em="2048" ascent="1536" descent="-512" />
<missing-glyph horiz-adv-x="483" />
<glyph unicode="&#xfb01;" horiz-adv-x="1105" d="M71 17l175 1248q18 129 98 200t207 71h437q16 0 15 -15l-12 -83q-2 -17 -19 -17h-431q-61 0 -100.5 -39t-49.5 -110l-35 -249l215 -3q15 0 14 -16l-10 -75q-1 -16 -19 -16l-217 -5l-125 -891q-2 -17 -19 -17h-110q-16 0 -14 17zM672 197l114 810q2 17 19 17h110 q17 0 15 -17l-111 -787q-7 -51 13.5 -78t66.5 -27h67q16 0 14 -17l-11 -81q-2 -17 -19 -17h-122q-89 0 -129 50.5t-27 146.5z" />
<glyph unicode="&#xfb02;" horiz-adv-x="1124" d="M71 17l175 1248q18 129 98 200t207 71h464q17 0 15 -17l-183 -1299q-7 -50 15 -77.5t69 -27.5h63q16 0 14 -17l-11 -81q-2 -17 -19 -17h-118q-89 0 -130.5 51.5t-28.5 145.5l172 1224h-332q-61 0 -100.5 -39t-49.5 -110l-35 -249l215 -3q15 0 14 -16l-10 -75 q-1 -16 -19 -16l-217 -5l-125 -891q-2 -17 -19 -17h-110q-16 0 -14 17z" />
<glyph horiz-adv-x="0" />
<glyph horiz-adv-x="682" />
<glyph unicode=" "  horiz-adv-x="483" />
<glyph unicode="&#x09;" horiz-adv-x="483" />
<glyph unicode="&#xa0;" horiz-adv-x="483" />
<glyph unicode="!" horiz-adv-x="432" d="M71 20l16 114q3 21 23 21h113q20 0 17 -21l-16 -114q-3 -20 -23 -20h-113q-20 0 -17 20zM155 426l81 728l37 263q2 17 19 17h110q18 0 15 -17l-37 -263l-125 -728q-2 -16 -19 -16h-67q-16 0 -14 16z" />
<glyph unicode="&#x22;" horiz-adv-x="624" d="M230 1155l35 364q2 17 18 17h84q15 0 13 -17l-69 -364h-81zM482 1155l34 364q2 17 18 17h85q15 0 13 -17l-69 -364h-81z" />
<glyph unicode="#" horiz-adv-x="1398" d="M86 489l32 76q4 15 20 15h294l100 278h-298q-20 0 -12 18l32 77q4 14 19 14h298l164 454q5 13 16 13h102q13 0 8 -13l-163 -454h226l163 454q5 13 15 13h103q13 0 8 -13l-162 -454h313q20 0 12 -19l-30 -75q-5 -15 -23 -15h-311l-99 -278h312q21 0 13 -19l-30 -75 q-6 -16 -21 -16h-314l-163 -459q-4 -11 -17 -11h-100q-14 0 -9 14l163 456h-228l-164 -458q-5 -12 -16 -12h-102q-14 0 -9 14l165 456h-295q-20 0 -12 19zM559 580h227l99 278h-227z" />
<glyph unicode="$" horiz-adv-x="1073" d="M74 58l12 81q2 17 19 17h501q77 0 125 40t59 113l33 235q10 71 -26.5 110.5t-112.5 39.5h-296q-105 0 -149.5 54t-30.5 155l34 242q16 118 92 183t198 65h91l33 232q2 17 19 17h84q16 0 14 -17l-32 -232h245q17 0 14 -17l-11 -76q-2 -17 -19 -17h-413q-73 0 -118.5 -42 t-56.5 -118l-23 -164q-10 -67 22.5 -101.5t102.5 -34.5h311q101 0 148 -55t32 -160l-47 -337q-16 -110 -86.5 -170t-183.5 -60h-107l-33 -234q-2 -16 -19 -16h-85q-16 0 -14 16l33 234h-344q-17 0 -15 17z" />
<glyph unicode="%" horiz-adv-x="1609" d="M73 5.5q-3 5.5 4 13.5l1358 1399q13 15 24 15h98q9 0 12.5 -6t-2.5 -13l-1360 -1400q-14 -14 -24 -14h-97q-10 0 -13 5.5zM222 1173q40 279 304 279q260 0 220 -279q-41 -293 -300 -293q-265 0 -224 293zM335 1173q-13 -94 14.5 -140t111.5 -46q80 0 119.5 46t52.5 140 q12 86 -14.5 129.5t-106.5 43.5q-83 0 -124 -43.5t-53 -129.5zM922 273q40 279 304 279q260 0 220 -279q-41 -293 -300 -293q-265 0 -224 293zM1035 273q-13 -94 14.5 -140t111.5 -46q80 0 119.5 46t52.5 140q12 86 -15 129.5t-107 43.5q-83 0 -123.5 -43.5t-52.5 -129.5z " />
<glyph unicode="&#x26;" horiz-adv-x="1429" d="M124 400l14 99q11 76 40.5 135t77 100.5t95.5 68.5t113 53q-64 177 -49 286l17 123q19 135 114.5 210t254.5 75q155 0 225.5 -68.5t51.5 -202.5l-9 -70q-8 -54 -25.5 -101t-40 -82.5t-56.5 -67.5t-65 -53.5t-75 -44t-77 -36t-81 -31.5q87 -188 318 -538q70 85 93 214 q2 16 19 16h110q16 0 14 -16q-33 -200 -163 -324q32 -48 92.5 -138t81.5 -121q5 -8 1.5 -14.5t-14.5 -6.5h-142q-11 0 -18 10q-60 87 -124 183q-154 -81 -370 -81q-241 0 -346.5 108t-76.5 315zM268 400q-21 -147 53 -227.5t242 -80.5q169 0 287 66q-233 353 -338 583 q-102 -42 -159.5 -93.5t-69.5 -135.5zM562 1168q-16 -106 41 -262q71 25 114.5 44.5t92.5 52t76.5 77t35.5 103.5l15 109q10 69 -29 106t-123 37q-87 0 -142.5 -43.5t-65.5 -113.5z" />
<glyph unicode="'" horiz-adv-x="374" d="M230 1155l35 364q2 17 18 17h84q15 0 13 -17l-69 -364h-81z" />
<glyph unicode="(" horiz-adv-x="657" d="M125 648q45 316 190.5 555.5t348.5 358.5q16 9 21 -5l27 -53q6 -14 -9 -23q-156 -96 -274 -315.5t-161 -517.5q-43 -295 15 -520t188 -335q13 -10 1 -23l-46 -56q-10 -12 -23 -4q-168 136 -245.5 382.5t-32.5 555.5z" />
<glyph unicode=")" horiz-adv-x="651" d="M-24 -232q-6 14 8 23q156 96 274 315.5t161 517.5q43 295 -14.5 520t-187.5 335q-13 10 -1 23l45 56q11 12 24 4q168 -136 245.5 -382.5t32.5 -555.5q-45 -316 -190.5 -555.5t-348.5 -358.5q-16 -9 -21 5z" />
<glyph unicode="*" horiz-adv-x="942" d="M206 1273l53 73q11 15 24 5l210 -146l-44 -67l-238 113q-16 7 -5 22zM214 876q-10 12 4 25l235 196l59 -59l-222 -217q-15 -15 -25 -2zM525 1235l23 277q0 17 17 17h85q18 0 13 -17l-57 -277h-81zM557 1038l78 57l179 -208q11 -13 -2 -24l-68 -58q-16 -14 -25 1z M629 1205l252 147q16 10 22 -5l32 -73q7 -17 -10 -22l-275 -116z" />
<glyph unicode="+" horiz-adv-x="1003" d="M136 671l11 81q2 17 19 17h318l44 317q2 17 19 17h82q17 0 14 -17l-45 -317h312q18 0 15 -17l-12 -81q-2 -17 -19 -17h-312l-44 -312q-2 -17 -19 -17h-81q-16 0 -14 17l43 312h-317q-16 0 -14 17z" />
<glyph unicode="," horiz-adv-x="376" d="M0 -266l89 266h-36q-16 0 -14 17l16 119q2 17 20 17h118q18 0 15 -17l-19 -136l-90 -266q-5 -16 -19 -16h-66q-8 0 -12.5 4t-1.5 12z" />
<glyph unicode="-" horiz-adv-x="954" d="M125 481l12 81q2 17 19 17h662q17 0 14 -17l-12 -81q-2 -17 -19 -17h-662q-16 0 -14 17z" />
<glyph unicode="." horiz-adv-x="376" d="M41 20l16 114q3 21 24 21h112q20 0 17 -21l-16 -114q-3 -20 -23 -20h-112q-21 0 -18 20z" />
<glyph unicode="/" horiz-adv-x="942" d="M43.5 -121q-3.5 6 0.5 14l773 1553q8 15 23 15h96q9 0 12.5 -5.5t-0.5 -13.5l-774 -1555q-8 -14 -24 -14h-93q-10 0 -13.5 6z" />
<glyph unicode="0" horiz-adv-x="1093" d="M126 322l110 784q22 156 114.5 242t239.5 86h174q146 0 214.5 -85.5t46.5 -242.5l-110 -784q-22 -154 -114.5 -238t-238.5 -84h-174q-146 0 -215 84t-47 238zM270 322q-14 -99 24.5 -152.5t122.5 -53.5h149q85 3 138.5 56.5t66.5 149.5l111 784q14 102 -24.5 156.5 t-122.5 54.5h-149q-84 0 -138 -54.5t-68 -156.5z" />
<glyph unicode="1" horiz-adv-x="1021" d="M47 17l12 83q2 16 19 16h309l169 1201h-301q-16 0 -14 17l11 83q2 17 19 17h428q18 0 15 -17l-183 -1301h266q18 0 15 -16l-12 -83q-2 -17 -19 -17h-719q-17 0 -15 17z" />
<glyph unicode="2" horiz-adv-x="1085" d="M72 17l24 174q11 80 48.5 149t89.5 118t116.5 96t130 84t129.5 80.5t115 85.5t87 100t45 124l15 109q12 87 -38 134.5t-154 47.5h-349q-16 0 -14 16l11 82q3 16 19 19h350q172 0 255.5 -78.5t63.5 -220.5l-16 -111q-12 -85 -58 -158.5t-110 -127.5t-139.5 -103 t-150.5 -95t-138 -92t-107 -104.5t-53 -124.5l-15 -105h632q18 0 15 -16l-12 -83q-2 -17 -19 -17h-759q-16 0 -14 17z" />
<glyph unicode="3" horiz-adv-x="1069" d="M76 17l11 82q2 17 19 17h396q103 0 167 54.5t78 153.5l24 169q16 112 -41.5 170.5t-179.5 58.5h-203q-16 0 -14 17l11 81q3 17 19 17h215q97 0 157 48t72 135l18 131q11 80 -36 123t-144 43h-320q-17 0 -15 17l12 83q2 17 19 17h320q166 0 246 -74t61 -209l-18 -131 q-23 -161 -146 -237q140 -86 111 -290l-24 -169q-22 -154 -128 -239t-278 -85h-395q-16 0 -14 17z" />
<glyph unicode="4" horiz-adv-x="1163" d="M127 379l18 133q1 8 8 20l537 886q9 16 23 16h109q21 0 10 -20l-542 -892l-6 -44h460l67 472q2 17 19 17h110q17 0 14 -17l-66 -472h124q18 0 15 -17l-12 -83q-2 -17 -19 -17h-125l-48 -344q-2 -17 -19 -17h-110q-16 0 -14 17l48 344h-587q-17 0 -14 18z" />
<glyph unicode="5" horiz-adv-x="1071" d="M67 17l12 83q2 16 19 16h410q100 0 163 49.5t75 137.5l29 204q14 102 -33.5 158t-148.5 56h-386q-16 0 -14 17l95 679q2 17 19 17h638q17 0 15 -17l-13 -93q-2 -17 -19 -17h-512l-66 -469h259q170 0 251 -86.5t58 -244.5l-29 -204q-20 -144 -124 -223.5t-273 -79.5h-411 q-16 0 -14 17z" />
<glyph unicode="6" horiz-adv-x="1107" d="M123 303l115 821q21 148 115.5 229t246.5 81h310q17 0 14 -17l-11 -83q-2 -17 -19 -17h-310q-83 0 -136 -50.5t-66 -142.5l-48 -339h349q148 0 219 -74t52 -208l-28 -200q-20 -145 -112.5 -224t-240.5 -79h-174q-152 0 -224 79t-52 224zM266 303q-13 -89 26.5 -138 t122.5 -49h174q80 0 130 49t63 138l28 200q11 79 -26 122.5t-117 43.5h-349z" />
<glyph unicode="7" horiz-adv-x="954" d="M91 20l717 1220l11 77h-580q-16 0 -14 17l12 83q2 17 19 17h703q18 0 15 -17l-23 -163q-1 -12 -10 -26l-708 -1214q-8 -14 -22 -14h-111q-21 0 -9 20z" />
<glyph unicode="8" horiz-adv-x="1159" d="M127 324l16 117q28 195 217 362q-73 88 -49 257l11 76q19 132 117.5 215t236.5 83h90q143 0 222 -79.5t61 -205.5l-13 -89q-20 -145 -160 -320q71 -41 103.5 -118t13.5 -210l-13 -92q-20 -144 -119 -232t-242 -88h-203q-152 0 -231 88.5t-58 235.5zM270 324 q-13 -93 35 -150.5t140 -57.5h177q84 0 143 56.5t72 147.5l14 105q9 63 -6 108.5t-44 70t-75 43.5t-90.5 29t-99.5 26.5t-92 35.5q-135 -139 -158 -297zM451 978q6 -31 14 -54t28 -40.5t39 -29.5t47.5 -22t54 -16.5t58.5 -14.5q16 -4 25 -6t23 -5.5t25 -6.5q106 130 126 265 l13 88q11 79 -32.5 130t-121.5 51h-90q-74 0 -129 -51t-66 -130l-12 -88q-8 -39 -2 -70z" />
<glyph unicode="9" horiz-adv-x="1112" d="M212 931l28 199q20 145 112.5 224.5t240.5 79.5h178q152 0 224 -79.5t52 -224.5l-116 -821q-21 -148 -115.5 -228.5t-246.5 -80.5h-313q-18 0 -15 17l12 83q2 16 19 16h314q83 0 136 50.5t66 142.5l47 339h-353q-148 0 -218.5 74.5t-51.5 208.5zM355 931 q-11 -79 26.5 -122.5t117.5 -43.5h353l51 365q13 89 -26.5 138t-122.5 49h-178q-80 0 -130 -49t-63 -138z" />
<glyph unicode=":" horiz-adv-x="423" d="M69 18l16 114q3 21 23 21h113q20 0 17 -21l-16 -114q-3 -20 -23 -20h-113q-20 0 -17 20zM160 706l16 114q3 20 24 20h112q21 0 18 -20l-16 -114q-3 -21 -24 -21h-112q-21 0 -18 21z" />
<glyph unicode=";" horiz-adv-x="411" d="M21 -266l90 266h-37q-16 0 -14 17l17 119q2 17 19 17h119q18 0 15 -17l-19 -136l-90 -266q-5 -16 -19 -16h-67q-8 0 -12.5 4t-1.5 12zM150 706l16 114q3 20 23 20h113q20 0 17 -20l-16 -114q-3 -21 -23 -21h-112q-21 0 -18 21z" />
<glyph unicode="&#x3c;" horiz-adv-x="1181" d="M75 657l15 108q2 15 16 19l997 415q10 4 14.5 0.5t3.5 -13.5l-11 -83q-1 -13 -16 -19l-880 -373l775 -373q11 -5 10 -18l-11 -83q-3 -21 -22 -13l-881 415q-12 3 -10 18z" />
<glyph unicode="=" horiz-adv-x="1226" d="M112 464l12 82q2 16 19 16h952q17 0 14 -16l-11 -82q-2 -17 -19 -17h-952q-17 0 -15 17zM170 873l11 82q2 16 19 16h952q17 0 14 -16l-11 -82q-2 -16 -19 -16h-952q-16 0 -14 16z" />
<glyph unicode="&#x3e;" horiz-adv-x="1212" d="M81 237l12 83q1 12 16 18l880 374l-775 372q-12 6 -11 19l12 83q3 21 22 13l880 -415q13 -4 11 -19l-15 -108q-2 -14 -16 -18l-997 -415q-10 -4 -15 -0.5t-4 13.5z" />
<glyph unicode="?" horiz-adv-x="966" d="M225 20l16 114q3 21 23 21h113q20 0 17 -21l-16 -114q-3 -20 -23 -20h-112q-21 0 -18 20zM227 1227q18 101 76.5 154t152.5 53h300q101 0 150.5 -61.5t35.5 -162.5l-39 -278q-16 -113 -83.5 -175t-173.5 -62h-85q-47 0 -76.5 -30t-33.5 -84l-26 -186q-2 -17 -19 -17h-110 q-18 0 -15 17l36 250q10 76 54.5 119t115.5 46h106q71 0 116 42t56 119l31 218q11 75 -25 113t-105 38h-160q-111 0 -135 -113q-3 -17 -19 -17h-110q-17 0 -15 17z" />
<glyph unicode="@" horiz-adv-x="1871" d="M122 540q63 449 307.5 681.5t667.5 232.5q402 0 575 -187t120 -563q-42 -301 -202.5 -455t-420.5 -154h-116q-17 0 -15 16l57 407h-233q-130 0 -147 -128l-7 -51q-19 -130 111 -130h91q18 0 15 -16l-12 -82q-2 -16 -19 -16h-136q-228 0 -197 218l13 91q16 111 83.5 170 t185.5 59h269l10 71q28 205 -125 205h-233q-16 0 -14 17l11 81q2 17 19 17h233q147 0 211.5 -76t44.5 -218l-73 -518q384 7 452 492q90 634 -567 634q-702 0 -815 -798q-54 -384 102.5 -566t536.5 -182q164 0 336 28q18 4 19 -13v-91q0 -17 -16 -20q-185 -30 -363 -30 q-450 0 -636 213t-123 661z" />
<glyph unicode="A" d="M20.5 5.5q-3.5 5.5 0.5 13.5l606 1401q6 14 20 14h207q14 0 15 -14l180 -1401q2 -19 -18 -19h-111q-14 0 -16 15l-61 495h-466l-211 -495q-8 -15 -21 -15h-112q-9 0 -12.5 5.5zM425 625h404l-85 694h-24z" />
<glyph unicode="B" horiz-adv-x="1148" d="M97 17l197 1400q3 17 19 17h127h320q150 0 222 -80q56 -63 56 -167q0 -29 -4 -61l-15 -111q-23 -157 -124 -236q69 -41 99 -113q21 -51 21 -113q0 -27 -4 -57l-21 -150q-23 -165 -116.5 -255.5t-241.5 -90.5h-520q-17 0 -15 17zM255 115h352q98 0 161 60.5t79 170.5 l19 137q3 25 3 47q0 75 -39 120q-51 59 -158 59h-334zM354 824h303q92 0 148.5 50t69.5 141l16 112q3 20 3 39q0 64 -36 103q-46 50 -142 50h-292z" />
<glyph unicode="C" horiz-adv-x="1034" d="M131 369l97 695q25 176 134.5 273t284.5 97h395q17 0 15 -16l-12 -82q-2 -17 -19 -17h-367q-119 0 -194.5 -67t-92.5 -188l-98 -695q-4 -29 -4 -54q0 -81 42 -133q54 -66 170 -67h425q16 0 14 -17l-11 -81q-2 -17 -19 -17h-466q-165 0 -242 96q-58 73 -58 192q0 38 6 81z " />
<glyph unicode="D" horiz-adv-x="1222" d="M97 17l14 98l183 1302q2 17 19 17h519q174 0 256 -97q63 -74 64 -195q0 -37 -6 -78l-98 -695q-25 -175 -128.5 -272t-268.5 -97h-539q-17 0 -15 17zM255 115h371q119 0 190.5 65t88.5 189l97 695q4 28 4 54q0 84 -43 134q-56 66 -176 67h-363z" />
<glyph unicode="E" horiz-adv-x="1107" d="M97 17l197 1400q2 17 19 17h110h654q17 0 15 -17l-12 -81q-2 -17 -19 -17h-637l-75 -531h535q17 0 15 -17l-12 -81q-2 -17 -19 -17h-535l-78 -558h637q16 0 14 -17l-11 -81q-2 -17 -19 -17h-764q-17 0 -15 17z" />
<glyph unicode="F" horiz-adv-x="985" d="M97 17l197 1400q2 17 19 17h110h613q18 0 15 -17l-13 -83q-3 -15 -18 -15h-596l-78 -555h495q18 0 16 -16l-12 -82q-2 -17 -19 -17h-496l-89 -632q-2 -17 -19 -17h-110q-17 0 -15 17z" />
<glyph unicode="G" horiz-adv-x="1196" d="M131 369l97 695q25 176 134 273t284 97h379q17 0 15 -16l-12 -82q-2 -17 -19 -17h-363q-113 0 -185 -67t-89 -188l-98 -701q-4 -29 -4 -55q0 -80 40 -128q52 -65 164 -65h378l57 410q2 12 2 23q0 34 -17 54q-21 28 -68 28h-163q-16 0 -14 17l11 81q2 17 19 17h218 q89 0 131 -51q32 -39 32 -102q0 -20 -4 -44l-75 -531q-2 -17 -19 -17h-537q-165 0 -242 96q-58 73 -58 192q0 38 6 81z" />
<glyph unicode="H" horiz-adv-x="1239" d="M97 17l197 1400q2 17 19 17h110q17 0 15 -17l-89 -629h620l88 629q2 17 19 17h110q16 0 14 -17l-196 -1400q-2 -17 -19 -17h-110q-17 0 -15 17l93 656h-620l-92 -656q-2 -17 -19 -17h-110q-17 0 -15 17z" />
<glyph unicode="I" horiz-adv-x="477" d="M97 17l197 1400q2 17 19 17h110q17 0 15 -17l-197 -1400q-2 -17 -19 -17h-110q-17 0 -15 17z" />
<glyph unicode="J" horiz-adv-x="645" d="M-15 17l12 81q2 17 19 17h148q58 0 96 38t48 106l162 1158q2 17 19 17h110q17 0 15 -17l-163 -1158q-17 -123 -96.5 -191t-206.5 -68h-148q-18 0 -15 17z" />
<glyph unicode="K" horiz-adv-x="1142" d="M97 17l197 1400q2 17 19 17h110q17 0 15 -17l-95 -673l688 679q11 11 26 11h141q6 0 9 -3t1.5 -7.5t-6.5 -9.5l-645 -625l443 -769q11 -20 -8 -20h-140q-12 0 -18 11l-382 675l-135 -131l-76 -538q-2 -17 -19 -17h-110q-17 0 -15 17z" />
<glyph unicode="L" horiz-adv-x="1032" d="M97 17l197 1400q2 17 19 17h109q19 0 16 -18l-183 -1301h642q16 0 14 -17l-11 -81q-2 -17 -19 -17h-769q-17 0 -15 17z" />
<glyph unicode="M" horiz-adv-x="1624" d="M100 20l196 1397q2 17 21 17h236q13 0 16 -15l224 -1085l533 1085q7 15 20 15h225q17 0 15 -18l-196 -1398q-3 -18 -19 -18h-111q-17 0 -14 18l175 1261h-19l-554 -1138q-7 -13 -21 -13h-37h-90q-13 0 -16 15l-242 1149h-20l-179 -1273q-3 -19 -19 -19h-110q-17 0 -14 20 z" />
<glyph unicode="N" horiz-adv-x="1261" d="M97 17l197 1400q2 17 19 17h250q14 0 17 -17l298 -1311h16l185 1311q2 17 19 17h108q18 0 16 -17l-197 -1400q-2 -17 -19 -17h-240q-15 0 -18 15l-306 1312h-17l-184 -1310q-2 -17 -19 -17h-110q-17 0 -15 17z" />
<glyph unicode="O" horiz-adv-x="1243" d="M131 369l97 695q25 176 133.5 273t281.5 97h214q173 0 254 -96q62 -74 62 -195q0 -37 -6 -79l-97 -695q-25 -176 -130 -272.5t-271 -96.5h-241q-166 0 -244 96q-59 73 -59 192q0 38 6 81zM274 369q-4 -29 -4 -54q0 -83 42 -133q55 -66 173 -67h159q118 0 191.5 66.5 t90.5 187.5l98 695q4 29 4 55q0 83 -42 133q-55 66 -173 67h-158q-118 0 -192 -66.5t-91 -188.5z" />
<glyph unicode="P" horiz-adv-x="1128" d="M97 17l197 1400q2 17 19 17h127h337q163 0 245 -88q66 -71 66 -181q0 -28 -4 -59l-21 -151q-23 -165 -116.5 -255t-241.5 -90h-381l-83 -593q-2 -17 -19 -17h-110q-17 0 -15 17zM340 724h329q104 0 169.5 59t80.5 167l20 143q3 25 3 47q0 75 -39 120q-51 59 -158 59h-321 z" />
<glyph unicode="Q" horiz-adv-x="1263" d="M131 369l97 695q25 176 133.5 273t281.5 97h235q172 0 254 -97q62 -74 62 -195q0 -37 -6 -78l-98 -695q-35 -246 -217 -331l132 -169q11 -13 -4 -25l-88 -69q-18 -15 -28 2l-149 225q-30 -2 -47 -2h-261q-166 0 -244 96q-59 74 -59 192q0 38 6 81zM274 369q-4 -29 -4 -54 q0 -83 42 -133q55 -67 173 -67h179q118 0 192 66.5t91 187.5l98 695q4 28 4 54q0 83 -43 134q-55 67 -173 67h-178q-118 0 -192 -66.5t-91 -188.5z" />
<glyph unicode="R" horiz-adv-x="1163" d="M97 17l197 1400q2 17 19 17h127h337q163 0 245 -88q66 -71 66 -181q0 -28 -4 -59l-18 -130q-18 -127 -78.5 -211t-156.5 -116l132 -630q5 -19 -16 -19h-124q-14 0 -17 13l-122 617h-357l-89 -630h-126q-17 0 -15 17zM343 745h329q104 0 169.5 59t80.5 167l17 122 q3 25 3 47q0 75 -39 120q-51 59 -158 59h-321z" />
<glyph unicode="S" horiz-adv-x="1060" d="M70 17l11 81q2 17 19 17h489q77 0 125 40t59 113l36 259q3 18 3 34q0 53 -28 86q-36 43 -112 43h-256q-118 0 -174 60q-45 48 -45 128q0 21 3 44l36 264q16 118 92.5 183t198.5 65h453q16 0 14 -17l-11 -81q-2 -17 -19 -17h-414q-73 0 -119 -42t-56 -118l-30 -213 q-2 -14 -2 -27q1 -41 23 -67q30 -34 91 -33h262q131 0 193 -68q49 -53 49 -141q0 -24 -4 -51l-46 -329q-16 -109 -87 -169.5t-184 -60.5h-556q-16 0 -14 17z" />
<glyph unicode="T" horiz-adv-x="1077" d="M184 1336l12 81q2 17 19 17h907q16 0 14 -17l-11 -81q-2 -17 -19 -17h-380l-183 -1302q-2 -17 -19 -17h-110q-16 0 -14 17l182 1302h-383q-17 0 -15 17z" />
<glyph unicode="U" horiz-adv-x="1222" d="M133 369l147 1048q2 17 19 17h110q17 0 15 -17l-148 -1048q-4 -30 -4 -56q0 -84 41 -133q54 -65 175 -65h137q118 0 192 66.5t91 187.5l147 1048q2 17 19 17h110q17 0 15 -17l-148 -1048q-25 -176 -130 -272.5t-271 -96.5h-220q-166 0 -244 96q-59 73 -59 192q0 38 6 81z " />
<glyph unicode="V" horiz-adv-x="1183" d="M218 1415q-3 19 17 19h112q14 0 16 -14l170 -1305h24l518 1304q6 15 20 15h113q20 0 12 -19l-571 -1402q-4 -13 -20 -13h-206q-15 0 -16 13z" />
<glyph unicode="W" horiz-adv-x="1839" d="M218 1415q-2 19 18 19h110q14 0 16 -15l131 -1303h25l468 1303q6 15 20 15h113q13 0 15 -14l105 -1304h24l483 1303q6 15 19 15h113q20 0 12 -19l-531 -1402q-4 -13 -20 -13h-219q-15 0 -16 13l-80 1145l-410 -1145q-4 -13 -19 -13h-220q-15 0 -16 13z" />
<glyph unicode="X" horiz-adv-x="1193" d="M19.5 3.5q-1.5 3.5 1.5 8.5l530 708l-317 701q-6 13 8 13h123q9 0 14 -9l265 -581l407 579q9 11 16 11h136q14 0 5 -13l-507 -702l321 -704q7 -15 -9 -15h-127q-10 0 -15 11l-264 585l-422 -584q-9 -12 -20 -12h-139q-5 0 -6.5 3.5z" />
<glyph unicode="Y" horiz-adv-x="1144" d="M220 1412q-7 22 16 22h111q12 0 18 -16l238 -654l432 655q11 15 22 15h111q11 0 14.5 -5t-2.5 -14l-533 -797l-84 -601q-2 -17 -19 -17h-110q-17 0 -15 17l86 611z" />
<glyph unicode="Z" horiz-adv-x="1153" d="M46 14l13 89q1 10 9 19l908 1197h-685q-14 0 -12 18l11 82q2 15 17 15h833q12 0 11 -15l-13 -91q-3 -14 -9 -22l-912 -1191h748q16 0 14 -17l-11 -81q-2 -17 -19 -17h-891q-14 0 -12 14z" />
<glyph unicode="[" horiz-adv-x="608" d="M75 -291l255 1810q2 17 19 17h319q18 0 15 -17l-12 -81q-2 -17 -19 -17h-193l-227 -1614h193q17 0 15 -16l-12 -82q-3 -16 -19 -16h-319q-18 0 -15 16z" />
<glyph unicode="\" horiz-adv-x="942" d="M248 1442q-4 19 15 19h94q16 0 19 -15l336 -1553q4 -20 -15 -20h-93q-17 0 -20 14z" />
<glyph unicode="]" horiz-adv-x="608" d="M-46 -291l11 82q2 16 19 16h193l227 1614h-193q-16 0 -14 17l11 81q3 17 19 17h320q17 0 14 -17l-255 -1810q-2 -16 -19 -16h-319q-17 0 -14 16z" />
<glyph unicode="^" horiz-adv-x="1087" d="M81 362l522 1009q6 11 17 11h122q12 0 14 -11l216 -1009q3 -18 -16 -18h-100q-14 0 -17 13l-176 901l-448 -901q-7 -13 -22 -13h-101q-19 0 -11 18z" />
<glyph unicode="_" horiz-adv-x="1075" d="M-14 -264l10 82q3 16 20 16h851q17 0 14 -16l-11 -82q-2 -16 -19 -16h-852q-16 0 -13 16z" />
<glyph unicode="`" horiz-adv-x="489" d="M173 1470l55 76q4 7 16 -1l250 -194q11 -10 4 -19l-38 -50q-6 -7 -22 4l-264 168q-8 6 -1 16z" />
<glyph unicode="a" horiz-adv-x="962" d="M90 218l22 150q14 102 81.5 156.5t184.5 54.5h300l19 131q4 28 4 52q1 58 -23 95q-34 52 -108 52h-251q-16 0 -14 17l12 81q2 17 19 17h250q142 0 209 -77q52 -59 51 -156q0 -29 -4 -61l-102 -720q-2 -10 -11 -10h-441q-202 0 -202 169q0 23 4 49zM237 241q-2 -17 -3 -32 q0 -43 20 -65q26 -30 89 -29h269l50 350h-269q-125 0 -141 -119z" />
<glyph unicode="b" horiz-adv-x="1005" d="M88 17l211 1502q2 17 19 17h110q16 0 14 -17l-69 -495h255q145 0 213 -80q53 -62 52 -164q0 -30 -4 -63l-58 -410q-20 -146 -105.5 -226.5t-221.5 -80.5h-402q-16 0 -14 17zM245 115h234q89 0 142.5 49t66.5 143l58 410q3 22 3 42q1 63 -31 101q-42 49 -135 49h-226z" />
<glyph unicode="c" horiz-adv-x="856" d="M117 307l58 410q20 146 111 226.5t237 80.5h268q17 0 15 -17l-12 -81q-2 -17 -19 -17h-240q-93 0 -148 -49t-69 -143l-57 -410q-3 -24 -3 -44q0 -62 29 -99q39 -49 128 -49h291q16 0 14 -17l-11 -81q-2 -17 -19 -17h-332q-136 0 -199 80q-47 60 -47 158q0 32 5 69z" />
<glyph unicode="d" horiz-adv-x="1015" d="M117 307l58 410q20 146 111 226.5t237 80.5h254l70 495q3 17 19 17h110q16 0 14 -17l-211 -1502q-2 -17 -19 -17h-402q-136 0 -198 80q-47 61 -48 160q0 32 5 67zM261 307q-3 -24 -3 -44q0 -62 29 -99q39 -49 128 -49h234l112 794h-226q-93 0 -148 -49t-69 -143z" />
<glyph unicode="e" horiz-adv-x="960" d="M115 294l60 423q20 146 113 226.5t242 80.5h107q129 0 189 -65q47 -51 47 -135q0 -24 -4 -51l-15 -104q-34 -239 -291 -239h-285l-17 -123q-3 -24 -3 -45q0 -62 28 -98q38 -49 127 -49h235q16 0 14 -17l-11 -81q-2 -17 -19 -17h-272q-140 0 -202 76q-47 57 -48 153 q0 30 5 65zM294 545h273q126 0 144 130l13 90q3 17 3 33q-1 46 -23 74q-30 38 -96 37h-94q-80 0 -131.5 -50.5t-64.5 -141.5z" />
<glyph unicode="f" horiz-adv-x="552" d="M71 17l175 1248q18 129 98 200t207 71h143q16 0 15 -15l-12 -83q-2 -17 -19 -17h-137q-61 0 -100.5 -39t-49.5 -110l-35 -249l215 -3q15 0 14 -16l-10 -75q-1 -16 -19 -16l-217 -5l-125 -891q-2 -17 -19 -17h-110q-16 0 -14 17z" />
<glyph unicode="g" horiz-adv-x="1005" d="M70 -495l11 81q3 17 19 17h296q89 0 142.5 49t66.5 143l28 205h-254q-145 0 -213 80q-54 63 -54 164q0 30 5 63l58 410q20 146 105.5 226.5t221.5 80.5h402q16 0 14 -17l-170 -1212q-20 -146 -105.5 -226.5t-221.5 -80.5h-337q-16 0 -14 17zM261 307q-4 -24 -4 -45 q0 -61 31 -98q42 -49 135 -49h226l112 794h-234q-89 0 -142.5 -49t-66.5 -143z" />
<glyph unicode="h" horiz-adv-x="1007" d="M88 17l211 1502q2 17 19 17h110q17 0 14 -17l-69 -495h255q143 0 210 -80q52 -62 52 -163q0 -30 -5 -64l-98 -700q-2 -17 -19 -17h-110q-17 0 -15 17l99 700q4 24 4 45q0 61 -30 98q-40 49 -132 49h-227l-126 -892q-2 -17 -19 -17h-110q-16 0 -14 17z" />
<glyph unicode="i" horiz-adv-x="538" d="M105 197l114 810q2 17 19 17h110q16 0 14 -17l-110 -787q-2 -13 -2 -24q0 -33 16 -54q20 -27 66 -27h66q17 0 15 -17l-12 -81q-2 -17 -19 -17h-122q-88 0 -128 50q-30 38 -30 103q0 20 3 44zM270 1367l21 152q2 17 19 17h110q17 0 14 -17l-21 -152q-2 -17 -19 -17h-110 q-16 0 -14 17z" />
<glyph unicode="j" horiz-adv-x="485" d="M-238 -495l12 81q2 17 19 17h136q59 0 96 37.5t47 106.5l177 1260q2 17 19 17h110q16 0 14 -17l-177 -1260q-17 -124 -96 -191.5t-206 -67.5h-136q-17 0 -15 17zM300 1367l21 152q2 17 19 17h110q17 0 14 -17l-21 -152q-2 -17 -19 -17h-110q-16 0 -14 17z" />
<glyph unicode="k" horiz-adv-x="987" d="M89 17l211 1502q2 17 19 17h110q16 0 14 -17l-130 -927l465 420q14 12 24 12h144q8 0 11.5 -2.5t1.5 -7t-8 -10.5l-425 -374l305 -610q4 -8 0 -14t-14 -6h-128q-15 0 -19 11l-255 522l-126 -112l-57 -404q-2 -17 -19 -17h-110q-16 0 -14 17z" />
<glyph unicode="l" horiz-adv-x="526" d="M103 197l186 1322q2 17 19 17h110q16 0 14 -17l-182 -1299q-2 -12 -2 -23q0 -35 17 -55q22 -28 68 -27h63q17 0 15 -17l-12 -81q-2 -17 -19 -17h-118q-88 0 -130 52q-32 39 -32 103q0 20 3 42z" />
<glyph unicode="m" horiz-adv-x="1564" d="M93 17l139 987q3 20 23 20h430q111 0 167 -53q71 53 181 53h141q148 0 218 -80q54 -63 53 -165q0 -29 -4 -62l-99 -700q-2 -17 -19 -17h-110q-16 0 -14 17l98 700q3 24 3 45q0 60 -26 97q-36 50 -117 50h-140q-49 0 -79.5 -28.5t-38.5 -81.5l-110 -782q-3 -17 -19 -17 h-110q-16 0 -14 17l110 782q2 14 2 26q0 35 -17 55q-23 28 -72 29h-307l-126 -892q-3 -17 -19 -17h-110q-16 0 -14 17z" />
<glyph unicode="n" horiz-adv-x="1026" d="M93 17l139 987q3 20 23 20h360q157 0 233 -80q60 -64 59 -169q0 -28 -4 -58l-98 -700q-2 -17 -19 -17h-110q-17 0 -15 17l99 700q3 21 3 40q-1 61 -33 101q-42 50 -131 51h-237l-126 -892q-3 -17 -19 -17h-110q-16 0 -14 17z" />
<glyph unicode="o" horiz-adv-x="1009" d="M112 274l66 468q19 134 110.5 208t239.5 74h117q137 0 203 -74q51 -57 51 -151q0 -27 -4 -57l-66 -468q-19 -131 -107 -202.5t-231 -71.5h-115q-144 0 -214 72q-55 56 -54 148q0 26 4 54zM258 292q-3 -21 -3 -40q0 -56 27 -91q36 -46 113 -46h116q73 0 119 46t58 131 l62 435q3 23 3 44q0 57 -24 91q-33 48 -106 47h-117q-77 0 -126 -47.5t-61 -134.5z" />
<glyph unicode="p" horiz-adv-x="1015" d="M25 -495l211 1502q2 17 19 17h127h275q136 0 199 -80q47 -61 47 -160q0 -32 -5 -67l-57 -410q-21 -151 -109.5 -229t-238.5 -78h-255l-69 -495q-3 -17 -19 -17h-110q-17 0 -15 17zM254 115h227q188 0 216 192l58 410q3 23 3 44q0 62 -30 99q-39 49 -128 49h-234z" />
<glyph unicode="q" horiz-adv-x="1005" d="M117 307l58 410q20 146 105.5 226.5t221.5 80.5h402q16 0 14 -17l-211 -1502q-2 -17 -19 -17h-110q-17 0 -14 17l69 495h-254q-145 0 -213 80q-54 63 -54 164q0 30 5 63zM261 307q-4 -24 -4 -45q0 -61 31 -98q42 -49 135 -49h227l111 794h-234q-89 0 -142.5 -49 t-66.5 -143z" />
<glyph unicode="r" horiz-adv-x="673" d="M93 17l102 728q19 133 96.5 206t201.5 73h189q17 0 14 -17l-11 -81q-3 -17 -19 -17h-152q-73 0 -119.5 -47.5t-58.5 -134.5l-100 -710q-3 -17 -19 -17h-110q-16 0 -14 17z" />
<glyph unicode="s" horiz-adv-x="860" d="M60 17l11 81q2 17 19 17h317q68 0 103.5 33t44.5 100l14 100q2 14 2 27q0 93 -112 93h-119q-103 0 -152 53q-38 41 -38 108q0 19 3 41l20 139q14 102 80.5 158.5t172.5 56.5h281q18 0 15 -17l-11 -76q-2 -17 -19 -17h-242q-56 0 -92.5 -33t-44.5 -93l-12 -89 q-2 -12 -1 -22q0 -35 18 -55q24 -26 74 -27h140q103 1 151 -55q37 -43 37 -114q0 -20 -3 -43l-24 -174q-14 -101 -77.5 -155t-169.5 -54h-372q-16 0 -14 17z" />
<glyph unicode="t" horiz-adv-x="595" d="M111 246l143 1026q3 22 21 14l105 -41q12 -6 11 -20l-28 -202l212 -3q15 0 14 -16l-10 -76q-1 -16 -19 -16l-214 -4l-88 -631q-3 -20 -2 -38q0 -49 22 -81q32 -42 100 -43h104q16 0 14 -17l-11 -81q-2 -17 -19 -17h-168q-106 0 -155 64q-36 48 -36 125q0 27 4 57z" />
<glyph unicode="u" horiz-adv-x="1026" d="M124 307l98 700q2 17 19 17h110q16 0 14 -17l-98 -700q-3 -22 -3 -41q0 -63 32 -101q42 -50 131 -50h238l125 892q3 17 19 17h110q17 0 15 -17l-139 -987q-3 -20 -23 -20h-361q-157 0 -232 80q-59 64 -59 168q0 28 4 59z" />
<glyph unicode="v" horiz-adv-x="940" d="M169 1005q-3 19 17 19h111q15 0 16 -14l99 -895h24l330 894q5 15 20 15h113q20 0 12 -19l-383 -992q-4 -13 -20 -13h-205q-15 0 -16 13z" />
<glyph unicode="w" horiz-adv-x="1525" d="M171 1004q-2 20 17 20h111q13 0 15 -16l79 -893h25l352 894q6 15 21 15h104q15 0 17 -14l97 -895h24l316 893q6 16 21 16h112q19 0 12 -20l-371 -988q-6 -16 -20 -16h-202q-15 0 -16 16l-77 793l-304 -793q-7 -16 -20 -16h-197q-15 0 -16 16z" />
<glyph unicode="x" horiz-adv-x="974" d="M31 12l384 501l-237 499q-2 4 0 8t8 4h128q11 0 14 -8l177 -388l277 386q7 10 15 10h140q6 0 7 -4t-3 -8l-379 -503l243 -497q2 -4 0 -8t-8 -4h-129q-10 0 -14 8l-182 385l-281 -385q-6 -8 -15 -8h-140q-14 0 -5 12z" />
<glyph unicode="y" horiz-adv-x="950" d="M169 1005q-2 19 17 19h111q15 0 16 -13l111 -896h22l332 894q4 15 20 15h113q17 0 11 -19l-392 -1005l-195 -496q-6 -16 -21 -16h-101q-18 0 -11 19l202 493h-89q-15 0 -16 13z" />
<glyph unicode="z" horiz-adv-x="899" d="M44 14l12 89q1 10 9 19l631 787h-475q-10 0 -8 11l13 94q2 10 12 10h617q13 0 11 -15l-13 -90q-3 -14 -9 -22l-632 -782h525q17 0 14 -17l-11 -81q-2 -17 -19 -17h-665q-14 0 -12 14z" />
<glyph unicode="{" horiz-adv-x="714" d="M104 554l11 83q3 17 19 17q138 4 195 56.5t66 175.5l28 365q10 139 103.5 212t257.5 76q16 0 14 -16l-11 -81q-3 -16 -19 -16q-194 -10 -212 -252l-20 -289q-13 -198 -163 -286q122 -82 82 -279l-60 -292q-50 -242 141 -252q17 0 14 -17l-11 -80q-2 -17 -19 -17 q-163 3 -235.5 76t-43.5 213l73 356q25 127 -15.5 179t-180.5 52q-16 0 -14 16z" />
<glyph unicode="|" horiz-adv-x="524" d="M75 -303l262 1863q2 17 19 17h110q16 0 14 -17l-262 -1863q-2 -17 -19 -17h-110q-16 0 -14 17z" />
<glyph unicode="}" horiz-adv-x="714" d="M-60 -321l11 80q3 17 19 17q194 10 212 252l20 288q13 199 162 286q-122 81 -81 280l60 292q50 242 -141 252q-17 0 -14 16l11 81q2 16 19 16q163 -3 235.5 -76t43.5 -212l-73 -356q-25 -127 15.5 -179t180.5 -52q16 0 14 -17l-11 -83q-3 -17 -19 -17q-138 -4 -195 -56 t-66 -175l-29 -365q-10 -140 -103 -213t-257 -76q-16 0 -14 17z" />
<glyph unicode="~" horiz-adv-x="1241" d="M124 580q25 143 104.5 223.5t195.5 80.5q63 0 117.5 -24t93.5 -58t76 -68t82.5 -58t96.5 -24q125 0 152 150q3 17 19 17h88q16 0 14 -17q-23 -141 -102.5 -215.5t-198.5 -74.5q-68 0 -122 23.5t-90.5 57t-70.5 67t-78 57t-97 23.5q-65 0 -108 -41.5t-59 -118.5 q-2 -17 -19 -17h-80q-16 0 -14 17z" />
<glyph unicode="&#xa1;" horiz-adv-x="440" d="M11 -393l37 263l125 728q2 16 19 16h67q16 0 14 -16l-81 -728l-37 -263q-2 -17 -19 -17h-110q-18 0 -15 17zM188 890l16 114q3 20 23 20h113q20 0 17 -20l-16 -114q-3 -21 -23 -21h-113q-20 0 -17 21z" />
<glyph unicode="&#xa2;" horiz-adv-x="868" d="M146 512l57 410q20 146 111 226.5t237 80.5h11l29 202q2 17 19 17h84q16 0 14 -17l-28 -202h148q17 0 14 -17l-11 -81q-2 -17 -19 -17h-249q-188 0 -216 -192l-58 -410q-13 -94 26.5 -143.5t128.5 -49.5h303q18 0 15 -16l-12 -82q-2 -16 -19 -16h-190l-31 -218 q-2 -16 -19 -16h-84q-17 0 -15 16l31 218h-36q-136 0 -198.5 80.5t-42.5 226.5z" />
<glyph unicode="&#xa3;" horiz-adv-x="1130" d="M37 17l11 83q3 16 19 16q101 0 164 45t111 161.5t89 332.5h-161q-16 0 -14 17l12 83q2 17 19 17h164q18 107 33 216q31 217 145 331.5t299 114.5h154q18 0 15 -17l-12 -85q-2 -16 -19 -16h-155q-116 0 -189 -84t-95 -244q-22 -154 -33 -216h249q18 0 15 -17l-12 -83 q-2 -17 -19 -17h-255q-79 -399 -209 -539h589q17 0 14 -16l-12 -83q-2 -17 -19 -17h-867h-17q-16 0 -14 17z" />
<glyph unicode="&#xa4;" horiz-adv-x="1198" d="M101 263q-12 10 1 23l162 164q-74 106 -50 281q24 170 126 277l-119 151q-10 11 5 23l63 49q15 12 23 -2l106 -158q112 70 263 70q156 0 250 -74l156 164q13 13 25 2l49 -51q12 -12 -3 -23l-167 -159q66 -105 44 -269q-24 -173 -130 -281l116 -164q10 -13 -5 -23l-68 -48 q-15 -10 -22 4l-100 168q-111 -68 -260 -68q-150 0 -241 68l-143 -166q-12 -15 -24 -5zM351 731q-20 -144 37 -222t193 -78q137 0 217 78.5t100 221.5t-38 221t-195 78t-215.5 -77.5t-98.5 -221.5z" />
<glyph unicode="&#xa5;" horiz-adv-x="1144" d="M191 350l12 83q2 16 19 16h259l19 135h-259q-17 0 -15 17l12 83q2 16 19 16h223l-260 715q-3 9 2.5 14t14.5 5h112q11 0 16 -14l239 -656l432 655q10 15 20 15h113q10 0 14 -5t-2 -14l-478 -715h226q17 0 14 -16l-11 -83q-2 -17 -19 -17h-270l-19 -135h270q17 0 14 -16 l-12 -83q-2 -17 -19 -17h-269l-45 -316q-2 -17 -19 -17h-110q-16 0 -14 17l45 316h-260q-16 0 -14 17z" />
<glyph unicode="&#xa6;" horiz-adv-x="524" d="M80 -291l107 766q2 17 19 17h110q17 0 15 -17l-108 -766q-2 -16 -19 -16h-110q-16 0 -14 16zM232 795l108 765q2 17 19 17h110q16 0 14 -17l-108 -765q-2 -17 -19 -17h-110q-16 0 -14 17z" />
<glyph unicode="&#xa7;" horiz-adv-x="952" d="M26 -128l12 82q2 17 19 17h317q142 0 160 132l13 92q9 62 -22.5 95.5t-98.5 33.5h-132q-91 0 -134 46.5t-31 129.5l25 176q15 105 92 164.5t199 49.5l-15 -109q-58 0 -93 -33t-43 -94l-15 -105q-15 -108 96 -108h161q90 0 132.5 -53t28.5 -148l-25 -175 q-14 -101 -77.5 -155t-169.5 -54h-384q-17 0 -15 16zM312 1137l20 148q14 102 80.5 158t172.5 56h282q17 0 14 -16l-11 -77q-2 -16 -19 -16h-241q-58 0 -93.5 -33t-43.5 -94l-11 -77q-15 -108 96 -108h160q90 0 132.5 -53t28.5 -148l-25 -183q-16 -111 -90.5 -165 t-198.5 -44l16 115q67 0 96 32t39 101l14 99q9 62 -22.5 95.5t-99.5 33.5h-132q-90 0 -133 46t-31 130z" />
<glyph unicode="&#xa8;" horiz-adv-x="731" d="M230 1290l21 153q2 16 19 16h110q18 0 15 -16l-22 -153q-2 -16 -19 -16h-110q-16 0 -14 16zM559 1290l21 153q2 16 19 16h110q18 0 15 -16l-22 -153q-2 -16 -19 -16h-110q-16 0 -14 16z" />
<glyph unicode="&#xa9;" horiz-adv-x="1832" d="M125 719q56 401 294 605t646 204q403 0 578.5 -203.5t119.5 -604.5q-117 -831 -928 -831q-409 0 -588.5 208t-121.5 622zM268 716q-51 -358 91 -534t492 -176q345 0 531 175.5t237 534.5q50 353 -87.5 524.5t-482.5 171.5q-350 0 -540.5 -172t-240.5 -524zM580 561 l46 328q20 146 111 226.5t237 80.5h251q17 0 14 -17l-11 -81q-2 -17 -19 -17h-223q-188 0 -216 -192l-47 -328q-13 -94 26.5 -143t128.5 -49h278q17 0 14 -17l-11 -81q-2 -17 -19 -17h-319q-136 0 -198.5 80.5t-42.5 226.5z" />
<glyph unicode="&#xaa;" horiz-adv-x="659" d="M208 1330l12 85q22 152 175 152h205l9 62q19 129 -84 129h-169q-10 0 -10 7l10 72q1 5 12 5h181q199 0 173 -185l-65 -460q-2 -9 -7 -9h-313q-148 0 -129 142zM319 1351q-6 -44 11.5 -64.5t60.5 -20.5h167l31 219h-167q-84 0 -96 -84z" />
<glyph unicode="&#xab;" horiz-adv-x="1169" d="M101 489q-11 11 3 24l446 411q13 13 24 2l63 -71q12 -10 -2 -23l-358 -326l279 -291q10 -12 -2 -23l-80 -80q-15 -12 -23 -2zM541 489q-11 11 3 24l446 412q12 13 24 1l63 -71q12 -10 -2 -23l-358 -326l279 -291q10 -12 -2 -23l-80 -80q-15 -12 -23 -2z" />
<glyph unicode="&#xac;" horiz-adv-x="1249" d="M123 671l11 81q2 17 19 17h1005q17 0 14 -17l-58 -413q-2 -17 -19 -17h-81q-16 0 -14 17l44 315h-907q-16 0 -14 17z" />
<glyph unicode="&#xad;" horiz-adv-x="954" d="M125 481l12 81q2 17 19 17h662q17 0 14 -17l-12 -81q-2 -17 -19 -17h-662q-16 0 -14 17z" />
<glyph unicode="&#xae;" horiz-adv-x="1054" d="M186 1018q30 214 144.5 325.5t326.5 111.5t292 -111t50 -326q-32 -227 -143.5 -343t-324.5 -116q-212 0 -294.5 117t-50.5 342zM265 1018q-28 -199 33 -297t242 -98q91 0 158.5 26t112.5 78t71 122.5t40 168.5q26 188 -34.5 282t-238.5 94q-181 0 -269.5 -94t-114.5 -282 zM403 766l69 496h72h118q57 0 87 -30.5t23 -79.5l-9 -59q-12 -84 -80 -110l49 -217h-80l-40 209h-108l-30 -209h-71zM511 1027h106q31 0 51 20.5t25 54.5l5 37q9 64 -63 64h-99z" />
<glyph unicode="&#xaf;" horiz-adv-x="677" d="M232 1338l12 81q2 17 19 17h416q17 0 14 -17l-12 -81q-2 -17 -19 -17h-415q-17 0 -15 17z" />
<glyph unicode="&#xb0;" horiz-adv-x="763" d="M230 1303q39 278 305 278q134 0 186 -71t33 -207q-41 -294 -300 -294q-265 0 -224 294zM343 1303q-13 -94 14.5 -140.5t111.5 -46.5q80 0 120 46.5t53 140.5q12 86 -15 129.5t-107 43.5q-83 0 -124 -43.5t-53 -129.5z" />
<glyph unicode="&#xb1;" horiz-adv-x="1003" d="M83 317l11 82q2 16 19 16h744q18 0 15 -16l-12 -82q-2 -16 -19 -16h-744q-16 0 -14 16zM157 847l12 82q2 16 19 16h316l38 275q2 17 19 17h82q17 0 14 -17l-39 -275h314q17 0 14 -16l-11 -82q-2 -16 -19 -16h-314l-37 -265q-2 -17 -19 -17h-82q-16 0 -14 17l37 265h-315 q-17 0 -15 16z" />
<glyph unicode="&#xb2;" horiz-adv-x="618" d="M164 1136l12 81q7 52 38.5 96t73 72.5t90 58.5t90 54.5t71.5 60.5t36 77l7 47q5 38 -17.5 58.5t-69.5 20.5h-197q-11 0 -10 10l9 61q1 9 12 12h198q96 0 143 -39t37 -110l-8 -60q-8 -58 -50 -107.5t-97 -84.5t-109.5 -66.5t-94.5 -66t-45 -70.5l-5 -32h333q11 0 10 -10 l-9 -63q-2 -10 -13 -10h-425q-12 0 -10 10z" />
<glyph unicode="&#xb3;" horiz-adv-x="610" d="M164 1136l9 63q1 10 13 10h217q51 0 82 23.5t37 66.5l10 75q7 50 -21.5 76.5t-87.5 26.5h-127q-11 0 -9 11l9 62q1 10 11 10h141q43 0 69.5 20t31.5 57l6 46q5 36 -16.5 56.5t-66.5 20.5h-179q-10 0 -9 10l9 63q2 10 11 10h179q95 0 141.5 -38.5t36.5 -108.5l-9 -62 q-11 -73 -67 -114q64 -49 51 -146l-11 -81q-11 -79 -69 -123t-152 -44h-230q-12 0 -10 10z" />
<glyph unicode="&#xb4;" horiz-adv-x="514" d="M209 1340q-7 8 5 18l250 195q11 8 15 1l55 -77q6 -9 -1 -15l-264 -168q-16 -11 -21 -5z" />
<glyph unicode="&#xb6;" horiz-adv-x="1226" d="M184 1012q30 212 149.5 317t331.5 105h127q16 0 14 -17l-241 -1720q-2 -17 -19 -17h-110q-17 0 -15 17l136 964l-10 -69q-212 0 -302 104.5t-61 315.5zM775 -303l242 1720q2 17 19 17h110q16 0 14 -17l-242 -1720q-2 -17 -19 -17h-110q-16 0 -14 17z" />
<glyph unicode="&#xb7;" horiz-adv-x="378" d="M108 482l16 114q3 21 24 21h112q21 0 18 -21l-16 -114q-3 -20 -24 -20h-112q-21 0 -18 20z" />
<glyph unicode="&#xb8;" horiz-adv-x="536" d="M-33 -285q2 11 13 11h82q11 0 9 -11q-2 -32 15.5 -49t51.5 -17q37 0 62.5 24t31.5 67q6 40 -10.5 62t-50.5 22h-55q-11 0 -9 11l9 65q2 10 12 10h55q90 -2 133.5 -46.5t32.5 -123.5q-13 -90 -72 -139t-152 -49q-83 0 -125.5 43t-32.5 120z" />
<glyph unicode="&#xb9;" horiz-adv-x="591" d="M167 1136l9 63q1 10 12 10h158l77 551h-153q-11 0 -10 10l9 63q2 10 13 10h245q11 0 10 -10l-87 -624h137q10 0 9 -10l-8 -63q-2 -10 -13 -10h-398q-12 0 -10 10z" />
<glyph unicode="&#xba;" horiz-adv-x="690" d="M214 1350l46 329q11 77 60 120.5t123 43.5h169q81 0 119 -43t27 -121l-46 -329q-11 -77 -61 -119.5t-131 -42.5h-169q-74 0 -110.5 43t-26.5 119zM325 1364q-12 -92 75 -92h105q42 1 68 25t32 67l42 299q12 93 -73 93h-106q-89 -4 -101 -93z" />
<glyph unicode="&#xbb;" horiz-adv-x="1181" d="M71 182q-12 10 2 23l358 325l-279 291q-11 13 2 24l79 80q15 12 24 1l350 -379q11 -11 -3 -23l-447 -412q-12 -12 -23 -1zM521 181q-13 11 2 24l358 325l-279 291q-11 13 2 24l80 80q14 11 23 1l350 -379q11 -11 -3 -23l-446 -412q-12 -12 -24 -1z" />
<glyph unicode="&#xbc;" horiz-adv-x="1662" d="M109 727l9 63q1 10 13 10h157l78 551h-154q-10 0 -9 10l8 63q2 10 13 10h246q11 0 10 -10l-88 -624h137q11 0 10 -10l-9 -63q-2 -10 -13 -10h-398q-12 0 -10 10zM193 -16l1087 1472q9 12 16 12h66q6 0 7.5 -4t-1.5 -8l-1089 -1476q-8 -11 -17 -11h-65q-15 0 -4 15z M1042 183l12 84q1 6 5 12l279 430q5 8 14 8h81q6 0 8 -4t-2 -9l-280 -430l-3 -19h220l31 220q1 10 11 10h84q9 0 8 -10l-30 -220h61q10 0 9 -10l-9 -62q-2 -10 -11 -10h-62l-23 -163q-2 -10 -11 -10h-84q-4 0 -7 3t-2 7l23 163h-312q-12 0 -10 10z" />
<glyph unicode="&#xbd;" horiz-adv-x="1632" d="M109 727l9 63q1 10 13 10h157l78 551h-154q-10 0 -9 10l8 63q2 10 13 10h246q11 0 10 -10l-88 -624h137q11 0 10 -10l-9 -63q-2 -10 -13 -10h-398q-12 0 -10 10zM193 -16l1087 1472q9 12 16 12h66q6 0 7.5 -4t-1.5 -8l-1089 -1476q-8 -11 -17 -11h-65q-15 0 -4 15z M1018 10l11 81q6 45 30.5 83.5t58.5 66t73.5 52.5t79.5 48t73.5 46.5t56.5 54.5t28 67l7 47q5 38 -17.5 58.5t-69.5 20.5h-197q-11 0 -10 10l8 62q1 9 13 12h198q96 0 143 -39.5t37 -110.5l-8 -60q-8 -58 -50 -107.5t-97.5 -84t-110 -66t-94.5 -66t-45 -70.5l-4 -32h333 q10 0 9 -10l-8 -63q-2 -10 -13 -10h-425q-12 0 -10 10z" />
<glyph unicode="&#xbe;" horiz-adv-x="1679" d="M107 727l9 63q1 10 12 10h217q51 0 82 23.5t37 66.5l11 75q7 49 -22 75.5t-88 26.5h-127q-10 0 -8 11l8 63q1 10 12 10h140q90 0 101 76l7 47q5 36 -17 56.5t-67 20.5h-179q-9 0 -8 10l8 63q2 10 12 10h179q94 0 140.5 -38.5t36.5 -109.5l-8 -62q-10 -71 -68 -113 q65 -50 52 -146l-12 -82q-11 -79 -69 -122.5t-152 -43.5h-229q-12 0 -10 10zM210 -16l1088 1472q9 12 16 12h66q6 0 7.5 -4t-1.5 -8l-1090 -1476q-8 -11 -16 -11h-66q-15 0 -4 15zM1060 183l12 84q1 6 5 12l279 429q6 9 14 9h81q6 0 8 -4t-2 -9l-281 -430l-2 -19h219l31 220 q1 10 12 10h83q10 0 9 -10l-31 -220h62q10 0 9 -10l-9 -63q-2 -10 -12 -10h-62l-22 -162q-2 -10 -12 -10h-84q-10 0 -8 10l23 162h-313q-11 0 -9 11z" />
<glyph unicode="&#xbf;" horiz-adv-x="950" d="M-11 -182l39 278q16 114 83 175.5t173 61.5h86q47 0 75.5 30t33.5 84l27 186q2 17 18 17h111q17 0 14 -17l-35 -250q-10 -76 -55 -119t-116 -46h-106q-71 0 -116 -42t-56 -119l-30 -218q-11 -75 24.5 -113t104.5 -38h160q112 0 136 113q3 17 19 17h110q16 0 14 -17 q-18 -101 -76.5 -154t-151.5 -53h-301q-101 0 -150 61.5t-35 162.5zM536 894l16 114q3 20 23 20h113q20 0 17 -20l-16 -114q-3 -21 -23 -21h-112q-21 0 -18 21z" />
<glyph unicode="&#xc0;" d="M20.5 5.5q-3.5 5.5 0.5 13.5l606 1401q6 14 20 14h207q14 0 15 -14l180 -1401q2 -19 -18 -19h-111q-14 0 -16 15l-61 496h-466l-211 -496q-8 -15 -21 -15h-112q-9 0 -12.5 5.5zM425 625h404l-85 694h-24zM481 1864q-7 5 0 15l55 77q4 7 15 -1l250 -195q12 -10 5 -18 l-39 -51q-6 -7 -22 4z" />
<glyph unicode="&#xc1;" d="M20.5 5.5q-3.5 5.5 0.5 13.5l606 1401q6 14 20 14h207q14 0 15 -15l180 -1400q2 -19 -18 -19h-111q-14 0 -16 15l-61 495h-466l-211 -495q-8 -15 -21 -15h-112q-9 0 -12.5 5.5zM425 625h404l-85 694h-24zM758 1749q-7 9 5 19l250 194q11 8 15 2l55 -77q7 -10 0 -16 l-264 -168q-16 -11 -22 -4z" />
<glyph unicode="&#xc2;" d="M22 19l605 1401q6 14 20 14h207q14 0 15 -14l180 -1401q2 -19 -18 -19h-111q-14 0 -16 15l-61 495h-466l-211 -495q-8 -15 -21 -15h-112q-20 0 -11 19zM425 625h404l-85 694h-24zM550 1744q-10 12 4 23l227 179q8 6 15 6h33q8 0 14 -6l178 -181q11 -11 -4 -24l-61 -55 q-13 -11 -24 0l-129 143h-14l-171 -140q-15 -12 -24 -2z" />
<glyph unicode="&#xc3;" d="M22 19l605 1401q6 14 20 14h207q14 0 15 -15l180 -1400q2 -19 -18 -19h-111q-14 0 -16 15l-61 495h-466l-211 -495q-8 -15 -21 -15h-112q-20 0 -11 19zM425 625h404l-85 694h-24zM548 1790q64 90 150 90q47 0 100.5 -27.5t86.5 -27.5q45 0 85 43q15 16 26 3l29 -39 q9 -12 -1 -25q-39 -47 -68.5 -68t-68.5 -21q-47 0 -104 27.5t-90 27.5q-48 0 -88 -41q-14 -14 -25 -3l-31 38q-11 11 -1 23z" />
<glyph unicode="&#xc4;" d="M20.5 5.5q-3.5 5.5 0.5 13.5l606 1401q6 14 20 14h207q14 0 15 -14l179 -1401q2 -19 -17 -19h-111q-14 0 -16 15l-61 495h-466l-211 -495q-8 -15 -21 -15h-112q-9 0 -12.5 5.5zM425 625h404l-85 694h-24zM541 1700l22 152q2 17 19 17h110q17 0 14 -17l-21 -152 q-2 -17 -19 -17h-110q-17 0 -15 17zM870 1700l22 152q2 17 19 17h110q17 0 14 -17l-21 -152q-2 -17 -19 -17h-110q-17 0 -15 17z" />
<glyph unicode="&#xc5;" d="M20.5 5.5q-3.5 5.5 0.5 13.5l606 1401q6 14 20 14h207q14 0 15 -14l180 -1401q2 -19 -18 -19h-111q-14 0 -16 15l-61 495h-466l-211 -495q-8 -15 -21 -15h-112q-9 0 -12.5 5.5zM425 625h404l-85 694h-24zM611 1835q12 84 69.5 133t140.5 49q85 0 127 -48.5t30 -133.5 q-11 -83 -67.5 -133.5t-140.5 -50.5q-83 0 -126.5 51t-32.5 133zM705 1835q-6 -41 15.5 -66t62.5 -25q40 0 67.5 25t33.5 66q5 40 -15.5 64.5t-60.5 24.5q-41 0 -69.5 -24.5t-33.5 -64.5z" />
<glyph unicode="&#xc6;" horiz-adv-x="1832" d="M22 19l511 1182q100 233 315 233h302h654q17 0 15 -17l-12 -81q-3 -17 -19 -17h-637l-75 -531h535q16 0 14 -17l-11 -81q-3 -17 -19 -17h-535l-78 -558h637q16 0 14 -17l-11 -81q-2 -17 -20 -17h-763q-17 0 -15 17l73 519h-509l-221 -521q-6 -15 -22 -15h-113 q-18 0 -10 19zM437 651h477l93 668h-169q-117 0 -178 -142z" />
<glyph unicode="&#xc7;" horiz-adv-x="1034" d="M131 369l97 695q25 176 134.5 273t284.5 97h395q17 0 15 -16l-12 -82q-2 -17 -19 -17h-367q-119 0 -194.5 -67t-92.5 -188l-98 -695q-17 -121 37.5 -187.5t170.5 -66.5h425q16 0 14 -17l-11 -81q-2 -17 -19 -17h-466q-165 0 -242 96.5t-52 272.5zM337 -285q2 11 13 11h82 q11 0 9 -11q-2 -32 15.5 -49t51.5 -17q37 0 62.5 24t31.5 67q6 40 -10.5 62t-50.5 22h-55q-11 0 -9 11l9 65q2 10 12 10h55q90 -2 133.5 -46.5t32.5 -123.5q-13 -90 -72 -139t-152 -49q-83 0 -125.5 43t-32.5 120z" />
<glyph unicode="&#xc8;" horiz-adv-x="1107" d="M97 17l197 1400q2 17 19 17h110h654q17 0 15 -17l-12 -81q-2 -17 -19 -17h-637l-75 -531h535q17 0 15 -17l-12 -81q-2 -17 -19 -17h-535l-78 -558h637q16 0 14 -17l-11 -81q-2 -17 -19 -17h-764q-17 0 -15 17zM429 1879l55 77q4 7 16 -1l250 -195q11 -9 4 -18l-38 -51 q-6 -7 -22 4l-264 169q-7 6 -1 15z" />
<glyph unicode="&#xc9;" horiz-adv-x="1107" d="M97 17l197 1400q2 17 19 17h110h654q17 0 15 -17l-12 -81q-2 -17 -19 -17h-637l-75 -531h535q17 0 15 -17l-12 -81q-2 -17 -19 -17h-535l-78 -558h637q16 0 14 -17l-11 -81q-2 -17 -19 -17h-764q-17 0 -15 17zM707 1750q-7 9 4 18l250 194q12 9 16 2l55 -77q7 -10 -1 -16 l-264 -168q-16 -11 -22 -4z" />
<glyph unicode="&#xca;" horiz-adv-x="1107" d="M97 17l197 1400q2 17 19 17h110h654q17 0 15 -17l-12 -81q-2 -17 -19 -17h-637l-75 -531h535q17 0 15 -17l-12 -81q-2 -17 -19 -17h-535l-78 -558h637q16 0 14 -17l-11 -81q-2 -17 -19 -17h-764q-17 0 -15 17zM499 1744q-11 12 3 23l228 179q8 6 15 6h33q7 0 13 -6 l178 -181q11 -11 -3 -24l-61 -55q-13 -12 -25 0l-128 143h-14l-171 -140q-15 -12 -24 -2z" />
<glyph unicode="&#xcb;" horiz-adv-x="1107" d="M97 17l197 1400q2 17 19 17h110h654q17 0 15 -17l-12 -81q-2 -17 -19 -17h-637l-75 -531h535q16 0 14 -17l-11 -81q-2 -17 -19 -17h-535l-78 -558h637q16 0 14 -17l-11 -81q-2 -17 -19 -17h-764q-17 0 -15 17zM490 1700l21 152q2 17 19 17h110q18 0 15 -17l-22 -152 q-2 -17 -19 -17h-110q-16 0 -14 17zM819 1700l21 152q2 17 19 17h110q18 0 15 -17l-22 -152q-2 -17 -19 -17h-110q-16 0 -14 17z" />
<glyph unicode="&#xcc;" horiz-adv-x="477" d="M97 17l197 1400q2 17 19 17h110q17 0 15 -17l-197 -1400q-2 -17 -19 -17h-110q-17 0 -15 17zM97 1879l56 77q4 7 15 -1l250 -195q12 -10 5 -18l-39 -51q-6 -7 -22 4l-264 169q-7 6 -1 15z" />
<glyph unicode="&#xcd;" horiz-adv-x="477" d="M97 17l197 1400q2 17 19 17h110q17 0 15 -17l-197 -1400q-2 -17 -19 -17h-110q-17 0 -15 17zM375 1750q-7 9 4 18l250 194q12 9 16 2l55 -77q7 -10 -1 -16l-264 -168q-16 -11 -22 -4z" />
<glyph unicode="&#xce;" horiz-adv-x="477" d="M97 17l197 1400q2 17 19 17h110q17 0 15 -17l-197 -1400q-2 -17 -19 -17h-110q-17 0 -15 17zM167 1744q-11 12 3 23l228 179q8 6 15 6h33q7 0 13 -6l178 -181q11 -11 -3 -24l-61 -56q-13 -11 -25 1l-128 143h-14l-171 -140q-15 -12 -24 -2z" />
<glyph unicode="&#xcf;" horiz-adv-x="477" d="M97 17l197 1400q2 17 19 17h110q17 0 15 -17l-197 -1400q-2 -17 -19 -17h-110q-17 0 -15 17zM158 1700l22 152q2 17 19 17h110q17 0 14 -17l-22 -152q-2 -17 -18 -17h-111q-16 0 -14 17zM487 1700l21 152q2 17 19 17h111q17 0 14 -17l-22 -152q-2 -17 -19 -17h-110 q-16 0 -14 17z" />
<glyph unicode="&#xd0;" horiz-adv-x="1222" d="M45 687l8 81q2 17 13 17h139l89 632q2 17 19 17h519q174 0 256.5 -97t57.5 -273l-98 -695q-25 -175 -128.5 -272t-268.5 -97h-539q-17 0 -15 17l14 98l78 555h-134q-12 0 -10 17zM255 115h371q119 0 190.5 65t88.5 189l97 695q17 122 -39 188.5t-176 66.5h-363l-75 -534 h181q12 0 10 -17l-8 -81q-2 -17 -14 -17h-185z" />
<glyph unicode="&#xd1;" horiz-adv-x="1261" d="M97 17l197 1400q2 17 19 17h250q14 0 17 -17l298 -1311h16l185 1311q2 17 19 17h108q18 0 16 -17l-197 -1400q-2 -17 -19 -17h-240q-15 0 -18 15l-306 1312h-17l-184 -1310q-2 -17 -19 -17h-110q-17 0 -15 17zM569 1790q64 90 150 90q47 0 100.5 -27.5t86.5 -27.5 q46 0 86 43q14 16 25 3l29 -39q9 -13 0 -25q-38 -47 -68.5 -68t-69.5 -21q-47 0 -103.5 27.5t-89.5 27.5q-49 0 -89 -41q-14 -14 -25 -3l-30 38q-12 12 -2 23z" />
<glyph unicode="&#xd2;" horiz-adv-x="1243" d="M131 369l97 695q25 176 133.5 273t281.5 97h214q173 0 254 -96.5t56 -273.5l-97 -695q-25 -176 -130 -272.5t-271 -96.5h-241q-166 0 -244 96.5t-53 272.5zM274 369q-17 -121 38 -187.5t173 -66.5h159q118 0 191.5 66.5t90.5 187.5l98 695q17 122 -38 188.5t-173 66.5 h-158q-118 0 -192 -66.5t-91 -188.5zM467 1879l55 77q4 7 16 -1l250 -195q11 -9 4 -18l-38 -51q-6 -7 -22 4l-264 169q-7 6 -1 15z" />
<glyph unicode="&#xd3;" horiz-adv-x="1243" d="M131 369l97 695q25 176 133.5 273t281.5 97h214q173 0 254 -96.5t56 -273.5l-97 -695q-25 -176 -130 -272.5t-271 -96.5h-241q-166 0 -244 96.5t-53 272.5zM274 369q-17 -121 38 -187.5t173 -66.5h159q118 0 191.5 66.5t90.5 187.5l98 695q17 122 -38 188.5t-173 66.5 h-158q-118 0 -192 -66.5t-91 -188.5zM744 1750q-7 8 5 18l250 194q12 9 16 2l55 -77q7 -10 -1 -16l-264 -168q-16 -11 -22 -4z" />
<glyph unicode="&#xd4;" horiz-adv-x="1243" d="M131 369l98 695q25 176 133.5 273t280.5 97h214q173 0 254.5 -96.5t56.5 -273.5l-98 -695q-25 -176 -130 -272.5t-271 -96.5h-241q-166 0 -244 96.5t-53 272.5zM274 369q-17 -121 38.5 -187.5t173.5 -66.5h158q118 0 191.5 66.5t90.5 187.5l98 695q17 122 -38 188.5 t-173 66.5h-158q-118 0 -192 -66.5t-91 -188.5zM537 1744q-11 12 3 23l228 179q8 6 15 6h33q7 0 13 -6l178 -181q11 -11 -3 -24l-61 -56q-13 -11 -25 1l-128 143h-14l-171 -140q-15 -12 -24 -2z" />
<glyph unicode="&#xd5;" horiz-adv-x="1243" d="M131 369l98 695q25 176 133.5 273t280.5 97h214q173 0 254.5 -96.5t56.5 -273.5l-98 -695q-25 -176 -130 -272.5t-271 -96.5h-241q-166 0 -244 96.5t-53 272.5zM274 369q-17 -121 38.5 -187.5t173.5 -66.5h158q118 0 191.5 66.5t90.5 187.5l98 695q17 122 -38 188.5 t-173 66.5h-158q-118 0 -192 -66.5t-91 -188.5zM534 1790q64 90 151 90q47 0 100.5 -27.5t86.5 -27.5q45 0 85 43q15 16 26 3l29 -39q9 -12 -1 -25q-38 -47 -68.5 -68t-69.5 -21q-47 0 -103.5 27.5t-89.5 27.5q-49 0 -89 -41q-14 -14 -25 -3l-30 38q-12 12 -2 23z" />
<glyph unicode="&#xd6;" horiz-adv-x="1243" d="M131 369l97 695q25 176 133.5 273t281.5 97h214q173 0 254 -96.5t56 -273.5l-97 -695q-25 -176 -130 -272.5t-271 -96.5h-241q-166 0 -244 96.5t-53 272.5zM274 369q-17 -121 38 -187.5t173 -66.5h159q118 0 191.5 66.5t90.5 187.5l98 695q17 122 -38 188.5t-173 66.5 h-158q-118 0 -192 -66.5t-91 -188.5zM528 1700l21 152q2 17 19 17h110q18 0 15 -17l-22 -152q-2 -17 -19 -17h-110q-16 0 -14 17zM857 1700l21 152q2 17 19 17h110q18 0 15 -17l-22 -152q-2 -17 -19 -17h-110q-16 0 -14 17z" />
<glyph unicode="&#xd7;" horiz-adv-x="993" d="M115 385q-11 10 4 23l326 296l-242 294q-10 12 3 23l65 57q12 12 23 0l242 -292l318 289q13 14 24 0l48 -56q10 -12 -3 -24l-320 -290l235 -284q10 -11 -3 -23l-65 -57q-13 -11 -23 0l-234 282l-325 -295q-14 -12 -24 0z" />
<glyph unicode="&#xd8;" horiz-adv-x="1243" d="M131 369l97 695q25 176 133.5 273t281.5 97h214q34 0 71 -5l52 110q8 16 23 16h96q9 0 12 -6t-1 -14l-67 -143q157 -88 124 -328l-97 -695q-25 -176 -130 -272.5t-271 -96.5h-241q-24 0 -36 1l-56 -118q-8 -15 -23 -15h-94q-10 0 -13.5 6.5t0.5 14.5l66 141 q-87 39 -123 125.5t-18 213.5zM274 369q-20 -144 59 -209l541 1154q-24 5 -61 5h-158q-118 0 -192 -66.5t-91 -188.5zM446 117q26 -2 39 -2h159q118 0 191.5 66.5t90.5 187.5l98 695q18 129 -43 195z" />
<glyph unicode="&#xd9;" horiz-adv-x="1222" d="M133 369l147 1048q2 17 19 17h110q17 0 15 -17l-148 -1048q-17 -124 37 -189t175 -65h137q118 0 192 66.5t91 187.5l147 1048q2 17 19 17h110q17 0 15 -17l-148 -1048q-25 -176 -130 -272.5t-271 -96.5h-220q-166 0 -244 96.5t-53 272.5zM468 1879l55 77q4 7 16 -1 l250 -195q11 -9 4 -18l-38 -51q-6 -7 -22 4l-264 169q-7 6 -1 15z" />
<glyph unicode="&#xda;" horiz-adv-x="1222" d="M133 369l147 1048q2 17 19 17h110q17 0 15 -17l-148 -1048q-17 -124 37 -189t175 -65h137q118 0 192 66.5t91 187.5l147 1048q2 17 19 17h110q17 0 15 -17l-148 -1048q-25 -176 -130 -272.5t-271 -96.5h-220q-166 0 -244 96.5t-53 272.5zM745 1750q-7 8 5 18l250 194 q12 9 16 2l55 -77q7 -10 -1 -16l-264 -168q-16 -11 -22 -4z" />
<glyph unicode="&#xdb;" horiz-adv-x="1222" d="M133 369l147 1048q2 17 19 17h110q17 0 15 -17l-148 -1048q-17 -124 37 -189t175 -65h137q118 0 192 66.5t91 187.5l147 1048q2 17 19 17h110q17 0 15 -17l-148 -1048q-25 -176 -130 -272.5t-271 -96.5h-219q-166 0 -244.5 96.5t-53.5 272.5zM538 1744q-11 12 3 23 l227 179q8 6 16 6h33q7 0 13 -6l178 -181q11 -11 -3 -24l-61 -56q-13 -11 -25 1l-128 143h-14l-171 -140q-15 -12 -24 -2z" />
<glyph unicode="&#xdc;" horiz-adv-x="1222" d="M133 369l147 1048q2 17 19 17h110q16 0 14 -17l-147 -1048q-17 -124 37 -189t175 -65h137q118 0 192 66.5t91 187.5l147 1048q2 17 19 17h110q17 0 15 -17l-148 -1048q-25 -176 -130 -272.5t-271 -96.5h-220q-166 0 -244 96.5t-53 272.5zM529 1700l21 152q2 17 19 17h110 q18 0 15 -17l-22 -152q-2 -17 -19 -17h-110q-16 0 -14 17zM858 1700l21 152q2 17 19 17h110q18 0 15 -17l-22 -152q-2 -17 -19 -17h-110q-16 0 -14 17z" />
<glyph unicode="&#xdd;" horiz-adv-x="1144" d="M221 1412q-7 22 15 22h111q12 0 18 -16l238 -654l432 655q11 15 22 15h111q11 0 14.5 -5t-2.5 -14l-533 -797l-84 -601q-2 -17 -19 -17h-110q-17 0 -15 17l86 611zM695 1750q-7 8 5 18l250 194q11 8 15 2l55 -77q7 -10 0 -16l-264 -168q-16 -11 -22 -4z" />
<glyph unicode="&#xde;" horiz-adv-x="1128" d="M97 17l197 1400q2 17 19 17h127l-37 -267h336q163 0 246 -88t62 -239l-22 -151q-23 -165 -116.5 -255t-241.5 -90h-380l-46 -327q-2 -17 -19 -17h-110q-17 0 -15 17zM303 458h329q103 0 168.5 59t80.5 167l20 143q15 108 -35.5 167t-157.5 59h-322z" />
<glyph unicode="&#xdf;" horiz-adv-x="1142" d="M70 10l173 1230q20 143 101.5 219.5t218.5 76.5h122q131 0 193.5 -66t47.5 -186l-17 -133q-8 -61 -40 -94t-73.5 -43.5t-82.5 -20t-72 -36.5t-38 -80l-11 -84q-7 -55 13 -82t72 -27h174q90 0 133 -49.5t31 -139.5l-39 -286q-14 -101 -77 -155t-169 -54h-385q-16 0 -14 17 l11 81q2 17 19 17h317q142 0 160 133l27 191q9 62 -22.5 95.5t-98.5 33.5h-157q-82 0 -119 44t-26 127l21 150q10 72 43.5 112.5t74.5 54t81.5 24t71 37t36.5 77.5l11 89q7 65 -26.5 101.5t-98.5 36.5h-96q-70 0 -116 -47.5t-58 -133.5l-173 -1230q-1 -10 -11 -10h-123 q-11 0 -9 10z" />
<glyph unicode="&#xe0;" horiz-adv-x="962" d="M91 218l21 150q14 102 81.5 156.5t184.5 54.5h300l19 131q14 95 -19.5 147t-107.5 52h-251q-16 0 -14 17l12 81q2 17 19 17h250q142 0 209 -77t47 -217l-102 -720q-2 -10 -11 -10h-441q-228 0 -197 218zM238 241q-9 -67 16.5 -96.5t88.5 -29.5h269l50 350h-269 q-125 0 -141 -119zM320 1470l55 76q4 7 16 -1l250 -194q12 -10 5 -19l-39 -50q-6 -7 -22 4l-264 168q-8 6 -1 16z" />
<glyph unicode="&#xe1;" horiz-adv-x="962" d="M91 218l21 150q14 102 81.5 156.5t184.5 54.5h300l19 131q14 95 -19.5 147t-107.5 52h-251q-16 0 -14 17l12 81q2 17 19 17h250q142 0 209 -77t47 -217l-102 -720q-2 -10 -11 -10h-441q-228 0 -197 218zM238 241q-9 -67 17 -96.5t89 -29.5h268l50 350h-269 q-125 0 -141 -119zM598 1340q-7 9 4 18l250 195q12 8 16 1l55 -77q6 -9 -1 -15l-264 -168q-16 -11 -22 -5z" />
<glyph unicode="&#xe2;" horiz-adv-x="962" d="M91 218l21 150q14 102 81.5 156.5t184.5 54.5h300l19 131q14 95 -19.5 147t-107.5 52h-250q-17 0 -15 17l12 81q2 17 19 17h250q142 0 209 -77t47 -217l-102 -720q-2 -10 -11 -10h-441q-228 0 -197 218zM238 241q-9 -67 17 -96.5t89 -29.5h268l50 350h-269 q-125 0 -141 -119zM390 1334q-11 13 3 24l228 179q7 6 15 6h33q7 0 13 -6l178 -181q12 -12 -3 -25l-61 -55q-13 -11 -25 1l-128 142h-14l-171 -140q-15 -12 -24 -1z" />
<glyph unicode="&#xe3;" horiz-adv-x="962" d="M91 218l21 150q14 102 81.5 156.5t184.5 54.5h300l19 131q14 95 -19.5 147t-107.5 52h-250q-17 0 -15 17l12 81q2 17 19 17h250q142 0 209 -77t47 -217l-101 -720q-2 -10 -12 -10h-441q-228 0 -197 218zM238 241q-9 -67 17 -96.5t89 -29.5h268l50 350h-269 q-125 0 -141 -119zM387 1381q64 90 151 90q47 0 100.5 -27.5t86.5 -27.5q46 0 85 42q15 16 26 3l29 -39q9 -12 -1 -25q-38 -46 -68.5 -67t-69.5 -21q-47 0 -103.5 27.5t-89.5 27.5q-48 0 -89 -42q-14 -14 -25 -3l-30 39q-12 12 -2 23z" />
<glyph unicode="&#xe4;" horiz-adv-x="962" d="M90 218l22 150q14 102 81.5 156.5t184.5 54.5h300l19 131q14 95 -19.5 147t-107.5 52h-251q-16 0 -14 17l12 81q2 17 19 17h250q142 0 209 -77t47 -217l-102 -720q-2 -10 -11 -10h-441q-229 0 -198 218zM237 241q-9 -67 17 -96.5t89 -29.5h269l50 350h-269 q-125 0 -141 -119zM381 1290l21 153q2 16 19 16h110q18 0 15 -16l-22 -153q-2 -16 -19 -16h-110q-16 0 -14 16zM710 1290l21 153q2 16 19 16h110q18 0 15 -16l-22 -153q-2 -16 -19 -16h-110q-16 0 -14 16z" />
<glyph unicode="&#xe5;" horiz-adv-x="962" d="M91 218l21 150q14 102 81.5 156.5t184.5 54.5h300l19 131q14 95 -19.5 147t-107.5 52h-251q-16 0 -14 17l12 81q2 17 19 17h250q142 0 209 -77t47 -217l-102 -720q-2 -10 -11 -10h-441q-228 0 -197 218zM237 241q-9 -67 17 -96.5t89 -29.5h269l50 350h-269 q-125 0 -141 -119zM451 1425q12 84 69.5 133.5t140.5 49.5q85 0 127 -49t30 -134q-11 -83 -68 -133.5t-141 -50.5q-82 0 -125.5 50.5t-32.5 133.5zM545 1425q-6 -41 15.5 -65.5t62.5 -24.5q40 0 67.5 24.5t33.5 65.5q5 40 -15.5 64.5t-60.5 24.5q-41 0 -69.5 -24.5 t-33.5 -64.5z" />
<glyph unicode="&#xe6;" horiz-adv-x="1456" d="M91 218l15 107q16 111 87.5 170t193.5 59h281l21 150q14 99 -21 152t-116 53h-217q-19 0 -16 18l12 81q2 16 18 16h219q156 0 226 -87q90 87 239 87h99q128 0 188.5 -64.5t44.5 -182.5l-11 -76q-17 -126 -90.5 -194t-192.5 -68h-276l-5 -36l-14 -96l-1 -6 q-13 -91 26.5 -138.5t127.5 -47.5h213q18 0 15 -17l-12 -81q-3 -17 -19 -17h-232q-150 0 -218 83q-86 -83 -234 -83h-154q-109 0 -160.5 57t-36.5 161zM237 244q-19 -129 124 -129h78q86 0 133 46.5t60 139.5l19 138h-244q-63 0 -107 -34t-53 -94zM811 554h251q63 0 101 38 t48 109l9 69q10 67 -20.5 103t-96.5 36h-60q-86 0 -141 -50.5t-68 -141.5z" />
<glyph unicode="&#xe7;" horiz-adv-x="856" d="M117 307l58 410q20 146 111 226.5t237 80.5h268q17 0 15 -17l-12 -81q-2 -17 -19 -17h-240q-93 0 -148 -49t-69 -143l-57 -410q-13 -94 26 -143t128 -49h291q16 0 14 -17l-11 -81q-2 -17 -19 -17h-332q-136 0 -199 80t-42 227zM239 -305q2 10 13 10h82q11 0 9 -10 q-2 -32 15.5 -49.5t51.5 -17.5q37 0 62.5 24t31.5 67q6 40 -10.5 62.5t-50.5 22.5h-55q-11 0 -9 10l9 66q2 10 12 10h55q89 -2 133 -47t33 -124q-13 -90 -71.5 -138.5t-152.5 -48.5q-83 0 -125.5 43t-32.5 120z" />
<glyph unicode="&#xe8;" horiz-adv-x="960" d="M115 294l60 423q20 146 113 226.5t242 80.5h107q129 0 189 -65t43 -186l-15 -104q-34 -239 -291 -239h-285l-17 -123q-13 -94 25.5 -143t126.5 -49h235q16 0 14 -17l-11 -81q-2 -17 -19 -17h-272q-140 0 -202.5 75.5t-42.5 218.5zM294 545h273q126 0 144 130l13 90 q10 69 -19.5 106.5t-96.5 37.5h-94q-80 0 -131.5 -50.5t-64.5 -141.5zM294 1470l56 76q4 7 15 -1l250 -194q12 -10 5 -19l-39 -50q-6 -7 -22 4l-264 168q-8 6 -1 16z" />
<glyph unicode="&#xe9;" horiz-adv-x="960" d="M115 294l60 423q20 146 113 226.5t242 80.5h107q129 0 189 -65t43 -186l-15 -104q-34 -239 -291 -239h-285l-17 -123q-13 -94 25.5 -143t126.5 -49h235q16 0 14 -17l-11 -81q-2 -17 -19 -17h-272q-140 0 -202.5 75.5t-42.5 218.5zM294 545h273q126 0 144 130l13 90 q10 69 -19.5 106.5t-96.5 37.5h-94q-80 0 -131.5 -50.5t-64.5 -141.5zM572 1340q-7 9 4 18l250 195q12 8 16 1l55 -77q6 -9 -1 -15l-264 -168q-16 -11 -21 -5z" />
<glyph unicode="&#xea;" horiz-adv-x="960" d="M115 294l60 423q20 146 113 226.5t242 80.5h107q129 0 189 -65t43 -186l-15 -104q-34 -239 -291 -239h-285l-17 -123q-13 -94 25.5 -143t126.5 -49h235q17 0 15 -17l-12 -81q-2 -17 -19 -17h-272q-140 0 -202.5 75.5t-42.5 218.5zM294 545h273q127 0 145 130l12 90 q10 69 -19.5 106.5t-96.5 37.5h-94q-80 0 -131.5 -50.5t-64.5 -141.5zM364 1335q-11 12 3 23l228 179q7 6 15 6h33q7 0 13 -6l178 -181q12 -12 -3 -25l-61 -55q-13 -11 -25 1l-128 142h-14l-171 -140q-15 -12 -24 -1z" />
<glyph unicode="&#xeb;" horiz-adv-x="960" d="M115 294l60 423q20 146 113 226.5t242 80.5h107q129 0 189 -65t43 -186l-15 -104q-34 -239 -291 -239h-285l-18 -123q-13 -94 26 -143t127 -49h235q16 0 14 -17l-11 -81q-2 -17 -19 -17h-272q-140 0 -202.5 75.5t-42.5 218.5zM294 545h273q126 0 144 130l13 90 q10 69 -19.5 106.5t-96.5 37.5h-94q-80 0 -131.5 -50.5t-64.5 -141.5zM355 1290l22 153q2 16 18 16h111q17 0 14 -16l-22 -153q-2 -16 -18 -16h-111q-16 0 -14 16zM684 1290l21 153q2 16 19 16h111q17 0 14 -16l-22 -153q-2 -16 -19 -16h-110q-16 0 -14 16z" />
<glyph unicode="&#xec;" horiz-adv-x="538" d="M23 1470l55 76q4 7 16 -1l250 -194q11 -10 4 -19l-38 -50q-6 -7 -22 4l-264 168q-8 6 -1 16zM105 197l114 810q2 17 19 17h110q16 0 14 -17l-110 -787q-7 -51 13.5 -78t66.5 -27h66q17 0 15 -17l-12 -81q-2 -17 -19 -17h-122q-88 0 -128 50.5t-27 146.5z" />
<glyph unicode="&#xed;" horiz-adv-x="538" d="M105 197l114 810q2 17 19 17h110q16 0 14 -17l-110 -787q-7 -51 13.5 -78t66.5 -27h66q17 0 15 -17l-12 -81q-2 -17 -19 -17h-122q-88 0 -128 50.5t-27 146.5zM300 1340q-7 8 5 18l250 195q11 8 15 1l56 -77q6 -9 -1 -15l-264 -168q-16 -11 -22 -5z" />
<glyph unicode="&#xee;" horiz-adv-x="538" d="M93 1334q-11 13 3 24l227 179q8 6 16 6h32q8 0 14 -6l178 -181q12 -12 -3 -25l-61 -55q-13 -11 -25 1l-128 142h-14l-171 -140q-15 -12 -24 -1zM105 197l114 810q2 17 19 17h110q16 0 14 -17l-110 -787q-7 -51 13.5 -78t66.5 -27h67q16 0 14 -17l-12 -81q-2 -17 -19 -17 h-121q-88 0 -128.5 50.5t-27.5 146.5z" />
<glyph unicode="&#xef;" horiz-adv-x="538" d="M84 1290l21 153q2 16 19 16h110q18 0 15 -16l-22 -153q-2 -16 -19 -16h-110q-16 0 -14 16zM105 197l114 810q2 17 19 17h110q16 0 14 -17l-110 -787q-7 -51 13.5 -78t66.5 -27h66q17 0 15 -17l-12 -81q-2 -17 -19 -17h-122q-88 0 -128 50.5t-27 146.5zM413 1290l21 153 q2 16 19 16h110q17 0 14 -16l-21 -153q-2 -16 -19 -16h-110q-16 0 -14 16z" />
<glyph unicode="&#xf0;" horiz-adv-x="1118" d="M112 274l66 468q19 134 110.5 208t239.5 74h302l32 229q8 50 -1 85l-157 -132q-14 -12 -25 2l-35 43q-10 15 5 26l158 132q-27 12 -66 12h-221q-17 0 -14 18l11 80q2 17 19 17h260q76 0 128 -29l139 115q16 11 24 0l34 -45q9 -14 -3 -24l-131 -110q36 -65 21 -173 l-34 -246l-101 -717q-20 -146 -118.5 -226.5t-255.5 -80.5h-111q-150 0 -222.5 71.5t-53.5 202.5zM258 287q-11 -82 24.5 -127t112.5 -45h120q89 0 145 50t69 142l85 602h-295q-83 0 -135 -47t-64 -133z" />
<glyph unicode="&#xf1;" horiz-adv-x="1026" d="M93 17l139 986q4 21 23 21h360q157 0 232.5 -80.5t55.5 -226.5l-98 -700q-2 -17 -19 -17h-110q-17 0 -15 17l99 700q13 91 -29.5 141.5t-131.5 50.5h-237l-126 -892q-3 -17 -19 -17h-110q-16 0 -14 17zM364 1381q64 90 150 90q47 0 100.5 -27.5t86.5 -27.5q46 0 85 42 q15 16 26 3l29 -39q8 -12 -1 -24q-39 -47 -68.5 -68t-68.5 -21q-47 0 -104 27.5t-90 27.5q-47 0 -88 -42q-14 -14 -25 -3l-31 39q-11 11 -1 23z" />
<glyph unicode="&#xf2;" horiz-adv-x="1009" d="M112 274l66 468q19 134 110.5 208t239.5 74h117q138 0 203.5 -74t46.5 -208l-66 -468q-19 -131 -107 -202.5t-231 -71.5h-115q-144 0 -213.5 71.5t-50.5 202.5zM258 292q-12 -85 24 -131t113 -46h116q73 0 119 46t58 131l62 435q12 87 -21 134.5t-106 47.5h-117 q-77 0 -126 -47.5t-61 -134.5zM327 1470l55 76q4 7 16 -1l250 -194q11 -10 4 -19l-39 -50q-6 -7 -21 4l-264 168q-8 6 -1 16z" />
<glyph unicode="&#xf3;" horiz-adv-x="1009" d="M112 274l66 468q19 134 110.5 208t239.5 74h117q138 0 203.5 -74t46.5 -208l-66 -468q-19 -131 -107 -202.5t-231 -71.5h-115q-144 0 -213.5 71.5t-50.5 202.5zM258 292q-12 -85 24 -131t113 -46h116q73 0 119 46t58 131l62 435q12 87 -21 134.5t-106 47.5h-117 q-77 0 -126 -47.5t-61 -134.5zM604 1340q-7 8 5 18l250 195q11 8 15 1l56 -77q6 -9 -1 -15l-264 -168q-16 -11 -22 -5z" />
<glyph unicode="&#xf4;" horiz-adv-x="1009" d="M113 274l65 468q19 134 110.5 208t239.5 74h117q138 0 203.5 -74t46.5 -208l-66 -468q-19 -131 -107 -202.5t-231 -71.5h-115q-144 0 -213 71.5t-50 202.5zM258 292q-12 -85 24.5 -131t113.5 -46h115q73 0 119 46t58 131l62 435q12 87 -21 134.5t-106 47.5h-117 q-77 0 -126 -47.5t-61 -134.5zM397 1334q-11 13 3 24l227 179q7 6 16 6h32q8 0 14 -6l178 -181q12 -12 -3 -25l-61 -55q-13 -11 -25 1l-128 142h-15l-170 -140q-15 -12 -25 -1z" />
<glyph unicode="&#xf5;" horiz-adv-x="1009" d="M113 274l65 468q19 134 110.5 208t239.5 74h117q138 0 203.5 -74t46.5 -208l-66 -468q-19 -131 -107 -202.5t-231 -71.5h-115q-144 0 -213 71.5t-50 202.5zM258 292q-12 -85 24.5 -131t113.5 -46h115q73 0 119 46t58 131l62 434q12 87 -21 135t-106 48h-117 q-77 0 -126 -48t-61 -135zM394 1381q64 90 150 90q47 0 100.5 -27.5t86.5 -27.5q47 0 86 42q15 16 26 3l28 -39q9 -13 0 -24q-38 -47 -68.5 -68t-69.5 -21q-47 0 -103.5 27.5t-89.5 27.5q-48 0 -89 -42q-14 -14 -25 -3l-30 39q-12 12 -2 23z" />
<glyph unicode="&#xf6;" horiz-adv-x="1009" d="M112 274l66 468q19 134 110.5 208t239.5 74h117q138 0 203.5 -74t46.5 -208l-66 -468q-19 -131 -107 -202.5t-231 -71.5h-115q-144 0 -213.5 71.5t-50.5 202.5zM258 292q-12 -85 24 -131t113 -46h116q73 0 119 46t58 131l61 435q12 87 -20.5 134.5t-105.5 47.5h-117 q-77 0 -126 -47.5t-61 -134.5zM388 1290l21 153q2 16 19 16h110q17 0 14 -16l-21 -153q-2 -16 -19 -16h-110q-16 0 -14 16zM717 1290l21 153q2 16 19 16h110q17 0 14 -16l-21 -153q-2 -16 -19 -16h-110q-16 0 -14 16z" />
<glyph unicode="&#xf7;" horiz-adv-x="1173" d="M180 669l13 82q3 17 23 17h893q20 0 17 -17l-14 -82q-3 -16 -22 -16h-893q-9 0 -13.5 4.5t-3.5 11.5zM496 333l16 114q3 20 23 20h112q21 0 18 -20l-16 -114q-3 -21 -23 -21h-113q-20 0 -17 21zM574 985l16 114q3 20 23 20h113q20 0 17 -20l-16 -114q-3 -21 -23 -21h-113 q-20 0 -17 21z" />
<glyph unicode="&#xf8;" horiz-adv-x="1009" d="M74 -275l145 306q-133 66 -107 243l66 468q19 134 110.5 208t239.5 74h117q15 0 43 -2l132 277q7 15 23 15h82q9 0 12 -6t-1 -13l-143 -302q128 -66 102 -251l-66 -468q-19 -131 -107 -202.5t-231 -71.5h-115q-28 0 -52 3l-134 -283q-8 -14 -23 -14h-81q-21 0 -12 19z M258 292q-12 -83 23 -130l354 747h-12h-117q-77 0 -126 -48t-61 -135zM377 115h19h115q73 0 119 46t58 131l62 435q12 86 -20 133z" />
<glyph unicode="&#xf9;" horiz-adv-x="1026" d="M124 307l98 700q2 17 19 17h110q16 0 14 -17l-98 -700q-13 -92 29 -142t131 -50h238l125 892q3 17 19 17h110q17 0 15 -17l-139 -987q-3 -20 -23 -20h-361q-157 0 -232 80.5t-55 226.5zM331 1454q-7 6 0 16l55 76q4 7 15 -1l250 -194q12 -10 5 -19l-39 -50q-6 -7 -22 4z " />
<glyph unicode="&#xfa;" horiz-adv-x="1026" d="M124 307l98 700q2 17 19 17h110q16 0 14 -17l-98 -700q-13 -92 29 -142t131 -50h238l125 892q3 17 19 17h110q17 0 15 -17l-139 -987q-3 -20 -23 -20h-361q-157 0 -232 80.5t-55 226.5zM608 1340q-7 8 5 18l250 195q11 8 15 1l55 -77q7 -10 0 -15l-264 -168 q-16 -11 -22 -5z" />
<glyph unicode="&#xfb;" horiz-adv-x="1026" d="M124 307l98 700q2 17 19 17h110q16 0 14 -17l-98 -700q-13 -92 29 -142t131 -50h238l125 892q3 17 19 17h110q17 0 15 -17l-139 -987q-3 -20 -23 -20h-361q-157 0 -232 80.5t-55 226.5zM401 1334q-11 13 3 24l227 179q7 6 15 6h33q8 0 14 -6l178 -181q11 -11 -4 -25 l-60 -55q-13 -11 -25 1l-128 142h-15l-170 -140q-15 -12 -25 -1z" />
<glyph unicode="&#xfc;" horiz-adv-x="1026" d="M124 307l98 700q2 17 19 17h110q16 0 14 -17l-98 -700q-13 -92 29 -142t131 -50h238l125 892q3 17 19 17h110q17 0 15 -17l-139 -987q-3 -20 -23 -20h-361q-157 0 -232 80.5t-55 226.5zM391 1290l22 153q2 16 19 16h110q17 0 14 -16l-21 -153q-2 -16 -19 -16h-110 q-17 0 -15 16zM720 1290l22 153q2 16 19 16h110q17 0 14 -16l-21 -153q-2 -16 -19 -16h-110q-17 0 -15 16z" />
<glyph unicode="&#xfd;" horiz-adv-x="950" d="M169 1005q-2 19 17 19h111q15 0 16 -13l111 -896h22l332 894q4 15 20 15h113q18 0 12 -19l-393 -1005l-195 -496q-6 -16 -21 -16h-101q-18 0 -11 19l202 493h-89q-15 0 -16 13zM591 1340q-7 8 5 18l250 195q11 8 15 1l56 -77q6 -9 -1 -15l-264 -168q-16 -11 -22 -5z" />
<glyph unicode="&#xfe;" horiz-adv-x="1015" d="M25 -495l269 1912q2 17 19 17h110q17 0 14 -17l-55 -393h275q136 0 198.5 -80.5t42.5 -226.5l-57 -410q-20 -146 -111 -226.5t-237 -80.5h-255l-69 -495q-3 -17 -19 -17h-110q-17 0 -15 17zM254 115h227q188 0 216 192l58 410q13 94 -26.5 143t-128.5 49h-234z" />
<glyph unicode="&#xff;" horiz-adv-x="950" d="M169 1005q-2 19 17 19h111q15 0 16 -13l111 -896h22l332 894q4 15 20 15h112q18 0 12 -19l-392 -1005l-195 -496q-6 -16 -21 -16h-101q-18 0 -11 19l201 493h-88q-15 0 -16 13zM375 1290l21 153q2 16 19 16h110q17 0 14 -16l-21 -153q-2 -16 -19 -16h-110q-16 0 -14 16z M704 1290l21 153q2 16 19 16h110q17 0 14 -16l-21 -153q-2 -16 -19 -16h-110q-16 0 -14 16z" />
<glyph unicode="&#x152;" horiz-adv-x="1925" d="M131 369l97 695q25 176 133.5 273t281.5 97h214q195 0 273 -124q113 124 308 124h448q17 0 14 -17l-11 -81q-2 -17 -19 -17h-420q-118 0 -192 -66.5t-91 -188.5l-38 -276h532q17 0 14 -17l-12 -81q-2 -17 -19 -17h-531l-43 -304q-17 -122 38 -188t173 -66h428 q18 0 15 -17l-12 -81q-2 -17 -19 -17h-469q-187 0 -261 120q-108 -120 -294 -120h-241q-166 0 -244 97t-53 272zM274 369q-17 -122 38 -188t173 -66h159q118 0 191.5 66t90.5 188l98 695q17 122 -38 188.5t-173 66.5h-158q-118 0 -192 -66.5t-91 -188.5z" />
<glyph unicode="&#x153;" horiz-adv-x="1513" d="M112 274l66 468q19 134 113.5 208t248.5 74h93q155 0 222 -84q90 84 236 84h99q124 0 186.5 -65.5t45.5 -178.5l-14 -94q-37 -247 -274 -247h-282l-19 -138q-13 -91 26.5 -138.5t127.5 -47.5h213q17 0 14 -17l-11 -81q-3 -17 -19 -17h-232q-153 0 -219 83 q-94 -83 -255 -83h-90q-150 0 -222.5 71.5t-53.5 202.5zM258 287q-11 -82 24.5 -127t112.5 -45h116q73 0 119.5 45t57.5 127l3 20l19 138l40 284q12 86 -21 133t-106 47h-117q-77 0 -125.5 -47t-60.5 -133zM869 554h255q122 0 141 132l13 86q10 66 -20.5 101.5t-96.5 35.5 h-61q-86 0 -140.5 -50.5t-67.5 -141.5z" />
<glyph unicode="&#x178;" horiz-adv-x="1144" d="M220 1412q-7 22 16 22h111q12 0 18 -16l238 -654l432 655q11 15 22 15h111q11 0 14.5 -5t-2.5 -14l-533 -797l-84 -601q-2 -17 -19 -17h-110q-17 0 -15 17l86 611zM478 1700l22 152q2 17 19 17h110q17 0 14 -17l-21 -152q-2 -17 -19 -17h-110q-17 0 -15 17zM807 1700 l22 152q2 17 19 17h110q17 0 14 -17l-21 -152q-2 -17 -19 -17h-110q-17 0 -15 17z" />
<glyph unicode="&#x2c6;" horiz-adv-x="655" d="M205 1334q-11 12 4 24l227 179q7 6 15 6h33q7 0 13 -6l178 -181q12 -12 -3 -25l-61 -55q-12 -11 -24 1l-129 142h-14l-171 -140q-15 -12 -24 -1z" />
<glyph unicode="&#x2dc;" horiz-adv-x="649" d="M222 1381q64 90 150 90q47 0 100.5 -27.5t86.5 -27.5q47 0 86 42q14 16 25 3l29 -39q9 -13 0 -24q-38 -47 -68.5 -68t-69.5 -21q-47 0 -104 27.5t-90 27.5q-47 0 -88 -42q-14 -14 -25 -3l-31 39q-11 11 -1 23z" />
<glyph unicode="&#x2000;" horiz-adv-x="1008" />
<glyph unicode="&#x2001;" horiz-adv-x="2017" />
<glyph unicode="&#x2002;" horiz-adv-x="1008" />
<glyph unicode="&#x2003;" horiz-adv-x="2017" />
<glyph unicode="&#x2004;" horiz-adv-x="672" />
<glyph unicode="&#x2005;" horiz-adv-x="504" />
<glyph unicode="&#x2006;" horiz-adv-x="336" />
<glyph unicode="&#x2007;" horiz-adv-x="336" />
<glyph unicode="&#x2008;" horiz-adv-x="252" />
<glyph unicode="&#x2009;" horiz-adv-x="403" />
<glyph unicode="&#x200a;" horiz-adv-x="112" />
<glyph unicode="&#x2010;" horiz-adv-x="954" d="M125 481l12 81q2 17 19 17h662q17 0 14 -17l-12 -81q-2 -17 -19 -17h-662q-16 0 -14 17z" />
<glyph unicode="&#x2011;" horiz-adv-x="954" d="M125 481l12 81q2 17 19 17h662q17 0 14 -17l-12 -81q-2 -17 -19 -17h-662q-16 0 -14 17z" />
<glyph unicode="&#x2012;" horiz-adv-x="954" d="M125 481l12 81q2 17 19 17h662q17 0 14 -17l-12 -81q-2 -17 -19 -17h-662q-16 0 -14 17z" />
<glyph unicode="&#x2013;" horiz-adv-x="1101" d="M125 481l12 81q2 17 19 17h810q17 0 14 -17l-11 -81q-2 -17 -19 -17h-811q-16 0 -14 17z" />
<glyph unicode="&#x2014;" horiz-adv-x="1372" d="M125 481l12 81q2 17 19 17h1079q17 0 14 -17l-11 -81q-2 -17 -19 -17h-1080q-16 0 -14 17z" />
<glyph unicode="&#x2018;" horiz-adv-x="399" d="M201 1117l18 136l90 266q5 16 19 16h67q8 0 12.5 -4t1.5 -12l-90 -266h37q16 0 14 -17l-17 -119q-2 -17 -19 -17h-119q-17 0 -14 17z" />
<glyph unicode="&#x2019;" horiz-adv-x="399" d="M214 1116l90 266h-37q-16 0 -14 17l17 119q2 17 20 17h118q18 0 15 -17l-19 -136l-90 -266q-5 -16 -19 -16h-66q-9 0 -13.5 4t-1.5 12z" />
<glyph unicode="&#x201a;" horiz-adv-x="376" d="M0 -266l89 266h-36q-16 0 -14 17l16 119q2 17 20 17h118q18 0 15 -17l-19 -136l-90 -266q-5 -16 -19 -16h-66q-8 0 -12.5 4t-1.5 12z" />
<glyph unicode="&#x201c;" horiz-adv-x="663" d="M200 1117l19 136h137q16 0 14 -17l-17 -119q-2 -17 -19 -17h-119q-18 0 -15 17zM219 1253l90 266q5 16 19 16h67q8 0 12.5 -4t1.5 -12l-89 -266h-101zM463 1117l19 136l90 266q5 16 19 16h67q8 0 12.5 -4t1.5 -12l-90 -266h37q16 0 14 -17l-17 -119q-2 -17 -19 -17h-119 q-18 0 -15 17z" />
<glyph unicode="&#x201d;" horiz-adv-x="665" d="M214 1116l90 266h-37q-16 0 -14 17l17 119q2 17 20 17h118q18 0 15 -17l-19 -136l-90 -266q-5 -16 -19 -16h-66q-9 0 -13.5 4t-1.5 12zM481 1116l90 266h-37q-16 0 -14 17l17 119q2 17 20 17h118q18 0 15 -17l-19 -136l-90 -266q-5 -16 -19 -16h-67q-8 0 -12.5 4t-1.5 12 z" />
<glyph unicode="&#x201e;" horiz-adv-x="636" d="M0 -266l89 266h-36q-16 0 -14 17l16 119q2 17 20 17h118q18 0 15 -17l-19 -136l-90 -266q-5 -16 -19 -16h-66q-8 0 -12.5 4t-1.5 12zM261 -266l89 266h-36q-16 0 -14 17l16 119q2 17 20 17h118q18 0 15 -17l-19 -136l-90 -266q-5 -16 -19 -16h-66q-8 0 -12.5 4t-1.5 12z " />
<glyph unicode="&#x2022;" horiz-adv-x="854" d="M160 565q0 270 270 270q269 0 269 -270q0 -269 -269 -269q-270 0 -270 269z" />
<glyph unicode="&#x2026;" horiz-adv-x="997" d="M236 20l16 114q3 21 24 21h131q20 0 17 -21l-16 -114q-3 -20 -23 -20h-131q-21 0 -18 20zM563 20l16 114q3 21 23 21h113q20 0 17 -21l-16 -114q-3 -20 -23 -20h-113q-20 0 -17 20z" />
<glyph unicode="&#x202f;" horiz-adv-x="403" />
<glyph unicode="&#x2039;" horiz-adv-x="731" d="M101 489q-11 11 3 24l446 411q13 13 24 2l63 -71q12 -10 -2 -23l-358 -326l279 -291q10 -12 -2 -23l-80 -80q-15 -12 -23 -2z" />
<glyph unicode="&#x203a;" horiz-adv-x="731" d="M71 182q-12 10 2 23l358 325l-279 291q-11 13 2 24l79 80q15 12 24 1l350 -379q11 -11 -3 -23l-447 -412q-12 -12 -23 -1z" />
<glyph unicode="&#x205f;" horiz-adv-x="504" />
<glyph unicode="&#x20ac;" horiz-adv-x="1163" d="M93 563l11 83q2 17 19 17h233l20 138h-213q-16 0 -14 16l12 83q2 17 19 17h212l6 44q31 225 181.5 349t410.5 124h222q17 0 14 -17l-12 -83q-2 -17 -19 -17h-222q-192 0 -300 -93t-132 -263l-6 -44h317q17 0 14 -17l-11 -83q-2 -16 -19 -16h-317l-20 -138h297 q17 0 14 -17l-12 -83q-2 -17 -19 -17h-296l-7 -49q-25 -180 57 -280.5t272 -100.5h232q17 0 14 -16l-12 -83q-2 -17 -19 -17h-232q-257 0 -372.5 132t-82.5 365l7 49h-233q-16 0 -14 17z" />
<glyph unicode="&#x2122;" horiz-adv-x="1503" d="M189 1337l12 88q2 9 10 9h492q10 0 8 -9l-13 -88q-2 -8 -9 -8h-179l-87 -617q-2 -11 -12 -11h-111q-11 0 -9 11l87 617h-181q-10 0 -8 8zM686 712l100 713q2 9 13 9h184q7 0 9 -9l93 -487l230 487q5 9 11 9h176q11 0 9 -9l-100 -713q-2 -11 -11 -11h-100q-10 0 -10 10 l86 612h-10l-250 -550q-5 -8 -13 -8h-90q-9 0 -10 9l-101 555h-11l-87 -618q-2 -10 -11 -10h-99q-11 0 -8 11z" />
<glyph unicode="&#x25fc;" horiz-adv-x="1024" d="M0 0v1024h1024v-1024h-1024z" />
<glyph unicode="&#xfb03;" horiz-adv-x="1689" d="M71 17l175 1248q18 129 98 200t207 71h143q16 0 15 -15l-12 -83q-2 -17 -19 -17h-137q-61 0 -100.5 -39t-49.5 -110l-35 -248h440l34 241q18 129 97.5 200t206.5 71h437q17 0 15 -15l-12 -83q-2 -17 -19 -17h-430q-61 0 -100.5 -39t-49.5 -110l-35 -248h215q18 0 15 -16 l-12 -84q-3 -16 -19 -16h-216l-125 -891q-2 -17 -19 -17h-110q-16 0 -14 17l125 891h-441l-125 -891q-2 -17 -19 -17h-110q-16 0 -14 17zM1256 197l114 810q2 17 19 17h110q17 0 15 -17l-111 -787q-7 -51 13.5 -78t66.5 -27h67q16 0 14 -17l-11 -81q-2 -17 -19 -17h-122 q-89 0 -129 50.5t-27 146.5z" />
<glyph unicode="&#xfb04;" horiz-adv-x="1708" d="M71 17l175 1248q18 129 98 200t207 71h143q16 0 15 -15l-12 -83q-2 -17 -19 -17h-137q-61 0 -100.5 -39t-49.5 -110l-35 -248h440l34 241q18 129 98 200t207 71h464q17 0 15 -17l-183 -1299q-7 -50 15 -77.5t69 -27.5h63q16 0 14 -17l-11 -81q-2 -17 -19 -17h-118 q-89 0 -130.5 51.5t-28.5 145.5l172 1224h-332q-61 0 -100.5 -39t-49.5 -110l-35 -248h215q18 0 15 -16l-12 -84q-3 -16 -19 -16h-216l-125 -891q-2 -17 -19 -17h-110q-16 0 -14 17l125 891h-441l-125 -891q-2 -17 -19 -17h-110q-16 0 -14 17z" />
</font>
</defs>
</svg>
